<?xml version="1.0" encoding="UTF-8" standalone="no"?><!DOCTYPE svg PUBLIC "-//W3C//DTD SVG 1.1//EN" "http://www.w3.org/Graphics/SVG/1.1/DTD/svg11.dtd"><svg width="100%" height="100%" viewBox="0 0 476 558" version="1.1" xmlns="http://www.w3.org/2000/svg" xmlns:xlink="http://www.w3.org/1999/xlink" xml:space="preserve" xmlns:serif="http://www.serif.com/" style="fill-rule:evenodd;clip-rule:evenodd;stroke-linejoin:round;stroke-miterlimit:2;"><rect id="アートボード1" x="0" y="0" width="476" height="558" style="fill:none;"/><rect x="7" y="19.5" width="457.5" height="514"/><g id="_470.png" serif:id="470.png"><path d="M109.233,423.448c-2.279,-4.84 1.358,-0.011 1.408,0.09c1.329,2.67 -1.373,6.166 9.347,8.1c11.898,2.147 13.095,-1.464 20.904,4.696c3.794,2.992 11.112,6.426 8.638,2.82c-1.051,-1.532 -7.788,-4.218 -8.712,-4.849c-6.586,-4.499 -6.341,-4.921 -14.121,-7.11c-3.101,-0.873 -2.923,-1.144 -6.366,-2.925c-2.268,-1.051 -10.678,-3.2 -3.525,-2.462c22.869,2.359 20.077,12.804 32.205,13.285c0.113,0.041 0.081,-0.09 1.471,0.294c1.896,-3.551 -1.667,-1.869 -5.462,-4.264c-4.217,-2.66 -8.157,-3.323 -9.292,-14.847c4.606,-1.886 -2.116,6.71 8.122,12.459c3.549,1.993 3.342,2.636 8.269,3.037c0.146,-0.499 1.112,-3.81 -1.374,-6.351c-0.332,-0.339 -10.423,-0.116 -8.818,-2.263c0.285,-0.381 16.525,1.013 5.055,-1.268c-5.334,-1.061 -5.761,-3.933 -4.152,-3.228c3.749,1.643 4.056,0.519 7.678,2.45c0.351,0.187 4.292,9.412 5.62,5.969c7.58,-19.65 24.425,-77.393 35.52,-99.122c15.626,-30.605 28.161,-56.906 31.482,-61.388c1.501,-4.275 1.496,-4.246 1.621,-4.617c3.041,-9.015 -14.642,25.356 -18.414,29.285c-8.694,17.549 -68.334,102.09 -91.965,126.183c-0.051,0.052 -0.037,2.822 -1.164,1.428c-1.055,-1.305 -0.753,-1.627 -4.661,-3.179c-4.563,-1.642 -4.469,-1.684 -8.838,-3.623c-1.604,-0.712 -3.501,1.736 -4.598,0.111l0.395,-0.59c0.323,-0.115 3.366,-1.205 4.171,-0.968c1.084,0.32 3.92,1.988 4.682,2.011c3.201,0.095 5.474,2.486 9.338,3.257c2.702,0.54 53.797,-65.961 70.201,-91.519c20.02,-31.193 20.529,-31.184 20.162,-32.371c-6.407,3.845 -6.59,3.281 -13.25,6.596c-0.437,0.134 -0.968,0.297 -5.365,-1.981c-5.148,1.937 -15.609,3.421 -19.138,3.582c-1.904,4.88 -4.77,8.983 -10.975,12.802c-3.323,2.046 -0.903,-1.422 -0.248,-5.823l0.17,-1.018c-1.059,-5.669 -9.632,-6.051 -10.61,-6.095c-0.348,-2.128 7.515,-2.754 12.336,6.552c1.195,2.32 1.375,2.459 1.905,2.088c4.472,-3.136 5.841,-6.236 11.064,-25.285c2.307,2.459 0.403,2.796 -0.632,6.64c-0.948,3.522 -1.72,6.675 -2.788,9.557c0.442,-0.108 0.995,-0.231 1.67,-0.37c8.175,-1.689 8.172,-1.438 16.287,-3.534c-6.405,-4.944 -10.008,-8.551 -13.492,-13.012c-1.937,-2.8 -2.403,-3.005 -2.707,-3.138c-2.087,2.173 -4.217,3.021 -4.511,3.262c-0.289,0.236 3.997,4.4 4.022,5.114c0.123,3.543 -1.333,-0.302 -5.248,-4.126l-0.524,-0.016c-1.543,0.931 -4.417,2.918 -11.813,5.943c-4.578,1.237 -1.22,4.784 -5.362,6.98c-1.378,0.731 0.599,-3.715 0.732,-4.014c-0.314,-0.014 -0.366,-0.64 -0.681,-0.654l-2.584,0.644c-2.878,1.955 -1.215,3.253 -3.796,5.492c-2.836,2.46 0.062,-2.717 0.176,-2.921c-0.262,0.05 -0.292,-0.628 -0.554,-0.578c-0.722,0.136 -0.609,0.454 -8.716,2.884c-0.695,0.208 -0.661,0.299 -0.59,1.088c7.592,1.019 7.069,2.337 11.965,4.739c2.266,1.112 1.639,-0.544 1.92,-1.449c0.182,-0.585 4.541,1.505 -5.124,13.558c1.588,0.929 5.64,1.289 6.992,-0.86c0.516,-0.819 2.22,-0.005 2.787,-0.426c5.341,-3.971 -1.573,-11.83 -2.446,-13.248c3.933,0.381 4.41,5.723 5.724,6.488c2.366,1.379 -0.936,5.979 -1.24,6.402c-4.388,6.064 -11.767,3.278 -12.745,2.909c-2.489,2.636 7.396,2.551 12.654,0.013c0.251,0.569 1.076,2.443 -7.05,3.278c-4.17,0.428 -5.211,-2.856 -11.536,2c-4.384,3.366 1.075,-3.619 1.276,-3.876l-0.956,-1.378l-1.219,0.88c-0.912,-0.153 -0.858,-0.121 -1.589,-0.678c-3.274,1.494 -3.305,1.581 -3.593,1.465c-1.81,-0.73 2.354,-2.74 2.636,-2.876c-0.137,-0.143 0.294,-0.43 0.157,-0.574c-0.053,-0.056 -0.006,-0.022 -10.152,-4.532c-3.839,-1.305 -3.734,-1.312 -4.062,-1.415c-1.073,-0.213 -0.994,-0.077 -2.127,-0.302c-0.336,-0.067 -0.25,-0.165 -4.176,-0.949c-21.596,-4.308 -33.793,4.885 -35.85,4.611c-0.24,-0.032 -1.151,-0.918 2.073,-2.203c24.572,-9.798 36.954,-1.188 40.491,-3.154c0.384,-0.213 1.801,-6.894 1.534,-6.902c-0.134,-0.004 -6.917,-0.277 -0.968,-1.373c8.339,-1.536 -2.252,-2.549 -6.255,-8.188c-2.472,-0.832 -4.617,0.449 -7.549,-1.85c-4.401,-3.451 -4.645,-2.911 -10.017,-4.604c-4.234,-1.335 -5.872,-10.348 -3.92,-6.909c3.562,6.274 4.467,5.469 11.18,7.974c4.603,1.718 3.857,3.882 8.76,3.734c1.726,-0.052 -4.877,-3.611 -5.341,-3.861c-3.24,-1.747 1.78,-1.412 8.334,3.641l0.616,0.331c3.529,1.641 6.129,4.097 7.405,4.979c3.614,2.501 -1.727,-4.179 -6.305,-5.653l-1.033,-0.45l-0.315,0.02l-1.956,-1.957c-1.184,-1.599 -1.207,-1.57 -1.278,-1.726c-0.922,-2.025 -3.484,-1.333 -2.039,-3.503c3.383,-5.08 2.764,3.725 3.988,3.681c1.587,-0.056 1.441,0.205 2.737,1.288c5.356,3.542 6.505,1.233 9.684,4.345c3.221,3.153 -1.264,-0.373 -5.654,-1.413c-2.265,-0.536 2.832,2.755 3.12,2.942c2.708,1.749 0.904,2.399 -0.358,5.322c-5.115,11.847 38.243,-54.472 47.813,-74.413c-0.711,-0.919 -0.8,-0.884 -0.566,-2.062c-1.814,0.175 -1.426,0.781 -7.399,6.711c-52.255,51.874 -59.358,57.123 -55.972,52.033c1.952,-2.935 3.113,-1.757 31.954,-30.337c32.704,-32.409 33.427,-31.666 63.199,-66.713c8.8,-10.359 8.985,-10.084 9.538,-10.68c4.542,-2.78 35.758,-72.097 33.946,-61.182c-0.637,3.834 -1.902,3.305 -22.16,43.238c-4.975,9.806 -7.282,14.134 -4.908,11.131c2.209,-2.795 6.158,0.477 3.647,0.03c-5.016,-0.894 -4.966,1.514 -41.018,71.339c-3.542,6.859 -3.133,6.943 -3.887,10.316c-0.374,2.382 -5.06,32.249 -0.312,30.138c0.269,-0.119 8.915,-3.964 3.645,-0.468c-0.534,0.354 -2.1,1.028 -0.129,1.289c18.336,2.42 -3.672,1.013 -4.001,0.99c-3.429,-0.24 1.331,4.301 3.409,6.72c6.934,8.07 12.754,11.102 14.738,12.36c-0.493,-2.783 -0.207,-2.894 0.016,-2.98c1.109,-0.428 0.234,2.95 3.608,1.817c5.715,-1.92 13.814,-7.278 14.421,-8.388c11.398,-20.798 11.813,-20.486 17.606,-30.101c0.082,-0.136 0.034,-0.143 0.461,-1.936c-0.161,-1.284 -0.02,-4.505 -1.723,-5.318c-1.805,0.444 -8.283,21.102 -24.589,31.632c-4.797,3.098 -0.079,-1.415 0.02,-1.481c18.824,-12.505 34.8,-49.087 29.745,-82.026c-3.165,-20.625 -9.065,-21.873 -7.19,-25.073c-1.173,-0.906 -1.099,-0.813 -1.173,-0.906c-3.869,-4.887 2.291,0.077 2.444,0.2c24.352,19.622 24.03,73.202 16.208,79.783c-2.192,1.844 0.92,-4.407 1.328,-6.253c8.934,-40.39 -11.756,-64.919 -17.93,-72.149c0.11,0.273 -0.829,0.239 -0.72,0.513c0.62,1.547 1.798,2.809 2.63,4.254c5.314,9.217 8.385,30.315 5.464,47.198c-3.876,22.399 -7.726,23.292 -5.801,23.376c2.996,-0.315 1.497,1.589 2.823,4.279c1.014,-4.875 1.169,-4.73 2.629,-9.566c6.786,-22.483 8.148,-24.67 8.459,-22.753c0.131,0.808 -13.65,49.71 -14.866,54.024c-5.046,17.971 -4.612,18.018 -7.979,36.327c-0.37,2.014 -5.571,29.823 -5.231,30.738c0.378,1.021 -0.125,0.889 -0.501,1.95c-0.235,0.664 -7.644,42.548 -7.607,42.629c0.057,0.126 0.14,-0.035 8.739,-8.3c3.61,-3.471 1.486,-4.265 0.351,-15.549c-2.509,-24.941 15.215,-98.31 17.286,-97.559c0.104,0.038 -7.208,33.298 -10.381,47.138c-0.943,4.112 -7.501,32.717 -5.153,52.48c1.97,16.573 2.423,17.621 3.603,16.9c10.041,-6.143 20.543,-14.744 20.767,-14.899c1.104,-0.765 1.957,0.104 0.901,0.892c-19.319,14.422 -19.63,13.968 -21.262,15.281c-0.358,0.288 -0.037,0.433 4.888,3.001c0.309,0.161 20.864,11.085 3.124,3.028c-4.263,-1.936 -7.278,-3.795 -7.372,-3.839c-1.685,-0.78 0.588,2.698 0.719,2.898c19.891,30.438 23.987,30.157 32.62,34.06c1.447,-1.524 1.488,-1.401 2.818,-2.967c75.217,-88.531 15.002,-135.565 -1.348,-149.846c0.076,0.183 -0.5,0.232 -0.424,0.415c0.662,1.594 3.386,-0.352 12.388,17.67c2.067,4.138 10.812,12.41 9.499,44.162c-0.16,3.871 -0.934,22.577 -16.498,45.537c-2.928,4.319 -16.954,19.877 -15.822,15.253c0.432,-1.765 2.857,0.274 15.316,-16.781c1.356,-1.856 9.081,-12.43 12.615,-25.813l0.551,-1.619c7.296,-38.838 -0.01,-45.888 -9.235,-64.928c-2.813,-5.806 -3.42,-5.364 -9.648,-12.722c-6.378,-7.534 -9.366,-7.389 -10.701,-7.956c-0.205,-0.057 -11.188,-3.12 -2.058,-1.692c1.156,0.181 1.073,-0.012 2.301,-0.026c-4.701,-2.928 -5.855,-3.795 -6.34,-4.159c-0.409,-0.307 -0.18,-1.712 1.32,-0.729c34.96,22.903 42.914,38.408 49.68,51.038c2.142,-0.005 1.802,0.692 4.594,2.634c1.348,0.632 1.328,0.673 1.456,0.683c1.27,0.096 0.814,-0.635 9.623,-12.687c20.037,-27.413 19.897,-27.439 52.982,-72.731c5.369,-7.35 5.272,-7.325 23.447,-32.141c6.095,-8.368 12.147,-35.403 16.39,-45.037c9.62,-21.839 -11.421,33.893 -9.993,38.914c-1.802,6.364 -3.282,13.047 -9.757,42.628c-3.717,16.98 -3.491,16.939 -4.885,34.258c-1.317,16.367 3.608,28.89 -0.206,19.672c-3.108,-7.511 0.603,-29.03 -0.432,-30.214c-5.388,24.584 -5.126,24.576 -10.939,49.01c4.008,-0.304 12.587,-12.491 16.893,-11.448l0.969,1.18c1.039,1.513 1.203,9.515 19.733,17.689c3.822,1.686 3.831,2.018 3.589,2.256c-1.348,1.322 -15.925,-6.504 -21.095,-12.934c-1.573,-1.957 -0.792,0.896 -0.815,10.514c-0.042,17.115 -4.599,22.86 -1.895,21.745c19.213,-7.923 27.223,-18.526 25.148,-13.904c-0.252,0.561 -13.358,10.892 -24.125,14.892c-5.327,1.979 -3.607,5.159 -5.241,7.873c-3.831,6.36 0.461,-5.234 0.619,-5.662c1.172,-3.167 6.739,-18.206 3.278,-42.083c-0.083,-0.068 -0.131,0.095 -1.224,-0.555c-4.106,2.215 -8.973,7.788 -14.972,12.058c-3.039,2.361 -1.404,3.29 -8.222,30.602c-0.412,1.681 -0.689,1.765 0.342,3.095c0.868,1.121 -1.294,0.915 -1.398,1.161c-2.141,5.048 -1.385,5.484 -6.785,11.909c-0.95,1.131 7.26,6.768 10.728,1.947c5.201,-7.229 -1.053,3.287 0.194,4.112c0.954,0.631 11.547,2.505 18.041,-2.563c-1.345,-0.112 -1.264,-0.04 -1.345,-0.112c-2.519,-2.238 5.506,-7.056 3.607,-1.34l-0.773,0.925c1.83,2.634 -2.369,2.74 -5.902,3.891c-1.487,0.485 2.364,1.165 8.605,2.76c1.418,0.363 2.005,-1.146 5.205,-2.887c5.22,-2.84 1.529,3.862 2.596,3.906c6.748,0.28 11.759,-4.635 12.539,-5.4c0.977,-0.958 1.878,2.285 -5.388,5.374c-4.072,1.731 -13.902,1.784 -13.934,1.763c-8.281,-5.618 -13.571,-2.814 -23.883,-4.867c-2.168,-0.432 -3.339,3.144 -5.046,-0.407c-1.264,-1.245 -3.643,-0.517 -7.325,-2.705c-1.511,-0.898 -1.538,-1.05 -3.249,-0.358c-0.348,0.141 -1.069,0.432 -4.693,0.144l-1.543,-0.156c-1.273,0.042 -0.949,-0.41 -1.475,-1.565c-0.264,-0.579 -0.654,0.19 -7.311,-3.13c-1.163,-0.58 -15.232,-1.066 -23.955,5.172c-0.553,0.395 -1.655,-1.258 0.631,-2.336c10.033,-4.728 21.394,-4.132 19.991,-5.187c-1.772,-1.332 -1.71,-1.261 -3.463,-2.763c-0.378,0.79 -0.38,1.16 -1.153,0.655c-2.042,-5.107 -2.512,-5.249 -0.894,-10.537c0.659,-2.152 2.204,-1.635 2.423,-1.561c-1.211,1.658 -1.356,2.363 -1.404,2.594c-1.102,5.352 -0.488,5.674 3.827,9.104c6.252,4.969 7.091,2.76 14.897,4.211c3.094,0.689 3.027,0.607 6.186,1.378c2.799,0.683 9.983,-12.535 8.14,-13.44c-12.963,-6.36 -13.777,-3.288 -14.854,-3.876c-4.425,-2.417 -12.15,-0.625 -16.092,-1.238c-5.654,-0.66 -5.867,-0.16 -13.057,-4.385c-5.444,-3.198 -6.655,-0.562 -11.225,-4.46c-2.943,-2.51 -0.552,1.421 0.003,10.095c3.029,47.321 -39.748,86.827 -38.987,90.375c-0.583,0.799 -0.505,0.809 -0.583,0.799c-3.847,-0.524 -26.674,15.654 -32.416,14.682c-1.447,2.249 -6.376,10.832 -8.978,9.368c-1.488,-1.55 -1.316,-2.788 -2.276,-4.105l-5.88,2.579c0.268,2.58 -2.424,3.829 0.14,4.202c15.571,2.267 23.782,14.491 47.846,1.807c5.374,-2.833 -10.847,13.313 -33.28,4.364c-9.895,-3.947 -12.856,-6.419 -17.091,-3.393l-0.277,0.912l-0.168,0.615c-2.922,1.704 -12.488,-0.886 -14.097,-1.823c-8.589,-5.007 6.186,1.376 9.217,-0.443c3.44,-2.929 7.72,-0.344 6.318,-5.769l-1.037,-0.164c-1.39,-0.566 -0.902,-0.922 -1.463,-2.866c-0.601,-2.081 -3.266,-0.148 -2.521,-1.459c1.48,-2.604 1.7,-3.219 -2.175,-6.892c0.071,-3.711 4.502,4.227 4.479,2.629c-0.024,-1.641 -3.441,-5.217 -4.098,-6.172c0.081,-2.505 1.235,0.027 2.086,-0.021c11.564,-0.647 12.706,12.62 15.18,14.816c0.357,-0.365 4.113,-4.199 4.057,-4.931c-0.026,-0.337 -1.412,0.509 -2.312,-3.532c-2.516,-11.304 -6.264,-9.572 -5.906,-10.464c0.199,-0.497 2.21,-5.505 2.63,-6.154c0.067,-0.104 1.754,-0.955 0.67,1.399c-0.958,2.804 -2.368,3.183 -0.212,5.167c3.392,3.121 7.581,20.956 6.123,9.951c-0.124,-0.937 1.159,-1.006 -0.669,-7.225c-1.491,-5.07 -3.28,-5.475 -4.479,-7.804c1.623,-0.432 6.1,2.135 6.759,13.972c0.282,5.076 8.66,-22.769 6.647,-26.958c-6.599,-5.996 -8.351,-6.039 -18.599,-5.072c-0.145,0.014 -5.911,0.558 -1.51,-1.025c11.048,-3.973 19.463,3.848 20.711,5.008c-0.27,-13.23 -4.167,-11.933 -11.111,-24.786c-1.549,-2.867 -0.853,-3.017 -1.589,-6.24c-0.324,-1.419 -2.518,2.888 -10.978,9.342c-1.335,1.018 -5.544,34.089 -8.78,44.047l0.066,0.5l-0.443,2.562c-4.997,15.88 -7.147,16.917 -23.809,16.959c-7.224,4.263 -15.538,-0.428 -16.704,-1.086c-3.887,-2.193 -3.682,5.901 -10.747,4.689c-5.916,-1.015 1.354,-1.117 1.504,-1.119c2.759,-0.039 6.644,-4.285 5.558,-5.223c-2.548,-0.804 -2.503,-0.724 -5.082,-1.604c-14.302,-4.884 -33.328,-0.431 -38.022,6.54c-2.163,3.212 -1.266,-3.005 4.77,-5.689c20.033,-8.907 36.79,-0.692 38.436,-0.97c0.265,-1.199 -0.138,-1.614 1.056,-1.741c2.695,-0.288 0.196,5.12 9.921,6.267c6.885,0.812 6.764,-0.649 6.66,-1.18c-8.576,-1.918 -8.295,-2.632 -10.976,-4.149c-3.056,-1.729 -5.494,-2.347 -2.547,-4.285c0.92,4.366 15.233,7.672 17.21,7.852c12.942,1.178 16.66,-0.255 21.432,-15.247c-0.016,-0.006 -4.759,-2.568 -18.279,-1.826c-7.678,0.677 -7.664,0.706 -8.331,0.756c-10.452,0.979 -11.324,1.924 -11.542,0.1c-0.222,-1.851 -4.73,4.807 -1.173,7.431c-4.338,3.83 -12.501,-7.608 -20.02,-7.868c-11.119,-0.385 -23.88,-0.864 -22.216,-8.906c0.02,-0.096 0,0 -0.665,-1.033c-2.286,0.759 -2.239,-0.086 -9.27,-2.83c-7.217,-0.916 -7.523,-2.375 -7.466,-9.673c0.12,-15.267 1.349,3.776 1.371,4.122c0.072,1.11 0.444,6.882 13.892,0.617c0.991,2.332 -5.723,3.447 -6.293,3.542c5.288,2.989 5.061,3.597 7.474,3.544Zm90.678,-32.618c-6.891,7.435 -9.328,8.813 -10.297,9.36c-1.954,4.381 -8.967,30.083 -8.352,30.612c0.662,0.57 0.757,0.215 10.899,0.545c1.256,-0.718 2.392,-10.087 2.898,-13.479c2.706,-13.503 2.538,-13.416 4.852,-27.038Zm125.735,-40.519c0.481,0.221 5.743,2.645 6.596,0.511c-1.343,-0.222 -2.809,-1.257 -6.596,-0.511Zm53.878,-153.417c-3.16,9.175 -2.308,9.429 -35.344,116.033c5.611,-2.884 4.898,-3.838 10.353,-6.967c3.399,-2.498 16.77,-76.555 20.58,-89.159c5.905,-19.535 4.495,-19.717 4.411,-19.907Zm-209.438,50.858c-1.633,3.221 -1.676,3.118 -20.566,40.188c2.664,0.959 17.689,-7.93 7.221,-3.547c-0.141,0.059 -0.728,-0.693 0.621,-1.625c1.482,-1.024 3.819,-0.655 4.151,-0.602l1.028,0.021c2.471,-1.541 2.34,-1.54 4.72,-3.042c1.703,-1.397 -0.691,-5.03 0.996,-3.128c1.034,1.166 1.876,2.6 1.598,1.035c-1.295,-7.292 -0.937,-7.243 -0.913,-14.573c0.715,-8.671 0.564,-8.615 1.045,-10.871c0.224,-1.05 0.76,-2.049 0.788,-3.122c0.009,-0.336 -0.698,-0.399 -0.689,-0.734Zm-63.729,33.592c-1.649,0.129 -0.244,1.06 -0.033,0.821c0.044,-0.049 0,0 0.033,-0.821Zm92.556,173.538c0.096,-2.353 -1.187,-1.854 -3.037,-0.415l3.037,0.415Zm177.056,-252.121c-1.199,1.1 -2.305,3.33 -2.461,3.645c-9.547,19.25 -27.378,49.549 -25.925,50.268c4.165,2.06 4.364,1.6 7.82,4.581c0.268,0.231 0.641,0.214 2.001,-3.943c4.804,-14.689 4.858,-14.611 12.393,-36.912c5.635,-16.258 5.76,-16.202 6.172,-17.639Zm-74.166,106.415c-1.821,1.243 -2.402,1.817 -0.631,3.249c0.707,0.571 -1.636,2 5.952,9.674c2.525,2.553 3.314,0.558 7.164,2.328l-0.71,-1.539c-3.239,-5.323 -9.145,-2.105 -7.057,-4.195c0.278,-0.279 0.326,-0.149 3.622,-0.007l0.55,-0.059c-3.415,-4.224 -8.885,-1.63 -6.306,-3.645c2.449,-1.914 7.787,3.113 8.314,3.61c2.354,2.217 3.651,1.085 4.447,4.215l0.89,1.189c0.476,-1.033 18.033,-45.674 20.442,-51.698c2.361,-5.904 7.814,-19.539 36.328,-70.69c3.215,-5.123 3.117,-5.158 3.397,-5.6c-1.397,-2.45 -1.415,0.942 -21.446,27.978c-5.173,6.982 -63.431,85.614 -63.862,87.854c-0.106,0.553 0.013,0.472 -0.092,1.009c-0.028,0.142 -0.112,0.037 -0.147,0.218l-0.922,1.06c3.651,1.609 13.743,9.578 14.886,10.481c4.241,3.35 8.531,1.428 8.359,4.893l0.258,0.776c3.918,-7.191 -4.502,-2.824 -8.68,-7.086c-3.933,-4.013 -5.955,-5.67 -6.354,-9.256c-0.087,-0.778 -5.766,-3.889 -0.578,-6.909c1.979,-1.152 3.569,-0.18 3.83,-0.021c0.177,0.242 0.947,1.297 0.214,3.74c-0.586,1.952 -0.793,-0.445 -1.87,-1.569Zm-93.508,134.11c-1.39,-2.669 -0.776,-5.287 -7.904,-8.644c-0.168,-0.079 -3.419,-1.61 -2.301,0.252c1.588,2.646 0.817,3.168 3.366,4.835c1.64,1.073 -0.566,1.527 -0.553,6.682c3.92,-1.124 3.789,-1.322 7.393,-3.126Zm41.562,-19.198c-2.121,-1.141 -1.948,-1.216 -4.127,-2.22c-9.902,-4.558 -18.94,-19.335 -18.677,-16.478c0.459,4.971 0.613,4.916 -0.289,9.807c-2.156,11.694 -1.569,11.782 -6.095,22.886c3.673,0.744 19.437,-9.306 29.187,-13.996Zm-130.416,-124.512c-2.986,0.472 -2.464,1.244 -3.854,3.908c-1.951,3.737 2.463,1.14 10.45,6.497c8.508,5.706 11.377,6.003 15.829,-3.282c0.585,-1.22 -0.132,-1.191 -4.875,-4.027c-5.281,-3.158 -16.124,-3.103 -17.55,-3.096Zm-8.27,-8.604c-0.985,0.044 -1.538,-0.932 -1.488,0.066c0.016,0.322 2.356,1.782 2.573,1.918c8.789,5.484 -0.935,-1.884 -1.086,-1.984Zm69.229,119.589c-11.906,10.419 -22.307,25.904 -22.97,21.272c-0.411,-2.873 -1.866,0.97 -1.929,1.137c-0.139,1.111 -0.324,1.745 0.721,1.326c8.24,-3.304 8.331,-3.043 17.25,-3.377c1.505,-0.056 0.938,-0.849 6.928,-20.358Zm-4.791,-179.582c-15.355,28.429 -30.158,54.82 -32.819,59.565c0.002,0 -0.117,0.91 3.14,0.018c2.149,-1.383 7.007,-12.869 23.377,-44.169c6.471,-12.373 7.144,-14.321 6.302,-15.415Zm39.097,78.237c-0.083,0.221 -0.525,-0.584 -0.608,-0.363c-0.991,2.623 -8.075,30.019 -8.752,32.636c-0.306,1.185 3.184,1.45 3.367,0.462c0.486,-2.618 3.738,-20.14 5.993,-32.735Zm5.648,-35.557c-11.704,24.796 -31.567,61.617 -30.708,62.564c4.155,4.581 5.723,2.782 9.388,7.734c1.581,2.136 1.451,-0.898 10.419,-31.542c10.56,-36.086 13.389,-42.709 10.901,-38.755Zm-85.388,41.457c-9.169,-0.893 -13.18,-9.374 -17.309,-6.55c0.54,0.923 0.461,0.89 0.54,0.923c5.243,2.161 5.182,2.118 10.071,4.926c2.625,0.949 3.11,1.323 3.343,1.502c1.707,1.007 1.694,1.005 1.844,1.088c0.272,0.149 0.268,0.013 0.549,0.166c0.94,-0.803 0.899,-0.758 1.751,-1.679c-0.182,-0.512 -0.223,-0.454 -0.788,-0.375Zm39.123,-102.916c-9.299,10.634 -6.845,12.151 -14.324,24.211c-9.929,16.012 -9.582,16.14 -19.821,31.981c-8.688,13.441 -8.289,13.578 -17.79,26.415c-5.242,7.082 11.379,0.237 15.871,-1.332c3.891,-1.754 2.959,-2.793 13.501,-21.686c1.843,-3.303 22.7,-40.682 22.633,-41.51c-0.014,-0.173 -6.23,-5.051 -4.482,-9.427c2.38,-5.956 -0.832,4.637 4.839,7.706c1.442,0.78 1.625,-2.848 22.715,-39.916c-0.096,0.338 0.911,0.329 0.815,0.667c-0.382,1.346 -1.379,2.436 -2.046,3.666c-16.424,30.275 -15.306,30.902 -19.807,36.807c0.871,0.83 1.154,0.943 1.769,-0.128c2.305,-4.011 6.835,-13.164 7.989,-15.461c12.729,-25.334 14.246,-25.727 12.456,-27.542c4.68,-7.272 5.466,-8.581 5.921,-9.339c-3.295,0.46 -16.192,18.722 -30.239,34.888Zm6.324,196.931c4.711,-11.226 17.178,-56.473 18.542,-61.421c0.987,-3.583 -10.26,-10.518 -10.74,-9.73c-1.08,1.77 -23.487,68.252 -25.491,74.2c-4.259,12.636 -6.252,16.575 -4.682,17.372c4.178,2.12 13.777,-14.948 22.372,-20.42Zm-23.463,-98.761c-0.232,-1.868 -0.147,-1.892 -0.251,-2.017c-0.75,-0.907 -2.133,4.503 0.251,2.017Zm198.387,-3.727c-8.776,6.418 -8.627,6.626 -11.043,7.718c-1.02,1.043 -1.417,1.45 -5.888,17.262c-0.212,0.749 0.161,0.795 8.679,4.389c1.989,0.839 4.095,-10.678 8.252,-29.368Zm-69.723,2.097c4.317,9.613 1.782,12.159 10.028,15.333c4.118,1.585 4.528,0.279 8.289,2.729c8.47,5.517 9.682,4.359 10.317,3.752l-0.469,-1.61c-1.737,-0.928 -3.918,-0.268 -7.747,-3.186c-7.85,-5.984 -7.259,-7.668 -12.056,-7.365c-0.983,0.062 -5.963,-6.206 -6.631,-7.676c-0.622,-1.369 -0.211,-1.962 -1.73,-1.977Zm83.818,-83.601c-15.375,45.658 -15.074,45.671 -30.353,91.41c0.161,-0.053 1.186,-0.392 2.025,-0.646c0.492,-0.541 0.666,-0.503 17.169,-52.938c10.926,-34.716 11.553,-34.695 11.159,-37.826Zm-33.42,94.463c1.922,-2.121 5.657,-15.755 16.851,-48.736c2.05,-6.038 4.667,-7.585 -0.839,-10.717c-3.788,-2.155 -4.913,-4.052 -6.984,-0.178c-1.155,2.161 -28.138,70.634 -28.211,71.163l4.162,-0.637c0.68,-0.901 12.915,-9.993 15.021,-10.896Zm8.924,36.04c-0.523,-3.566 -7.139,-3.059 -3.593,-1.359c1.809,0.867 1.733,0.738 3.593,1.359Zm-157.42,76.9c1.697,0.995 1.656,0.925 3.597,1.413l1.1,0.018c-0.268,-2.561 -1.468,-1.236 -4.697,-1.43Zm-4.377,-25.745c-0.447,1.058 -0.947,2.24 -4.315,13.69c-2.449,8.324 -1.416,8.683 -1.985,9.174c-2.801,2.414 2.38,1.413 2.655,0.526c0.669,-2.157 7.589,-24.482 7.076,-27.333c1.83,-3.055 9.671,-35.128 27.294,-96.74c2.451,-8.51 2.438,-8.394 4.547,-17.116c-0.426,0.404 -0.325,-0.794 -0.707,-0.433c-0.093,0.088 -0.029,0.027 -0.458,1.536c-12.68,44.608 -33.646,113.464 -34.108,116.696Zm16.228,-16.525c0.99,-1.327 0.893,-1.362 8.337,-42.581c1.268,-7.023 -2.845,-3.906 -3.002,-3.568c-0.252,0.54 -13.659,49.392 -15.257,55.023c9.243,-8.198 8.925,-8.501 9.922,-8.874Zm136.902,-70.078c-1.104,0.902 -6.33,5.173 -14.196,10.783c4.956,0.201 4.881,0.096 9.825,0.398c1.416,0.086 4.105,-10.324 4.37,-11.181Zm36.692,32.393c-0.027,-1.047 0.056,-1.032 -0.027,-1.047c-0.502,-0.092 -2.275,1.372 0.027,1.047Zm-71.588,-44.3c-2.292,-2.151 -2.919,2.506 -2.222,2.067c0.205,-0.129 -0.05,-0.357 2.222,-2.067Zm40.069,8.705c-1.502,0.635 -1.509,0.601 -1.622,0.685c-1.916,1.393 -2.3,3.228 -5.338,12.873c-0.464,1.475 1.24,1.442 1.589,1.465c1.217,0.081 4.058,-10.756 5.371,-15.023Zm36.771,44.157c1.249,0.367 1.305,0.624 2.396,-0.147c6.207,-4.384 -1.627,-0.725 -1.755,-0.649l-0.641,0.795Zm-223.46,70.197c1.477,-3.809 -0.713,-3.054 -0.944,-2.961c-0.545,0.218 -0.158,0.423 0.944,2.961Z" style="fill:#fff;"/><path d="M386.7,183.976c0.817,-1.981 1.061,0.428 5.602,2.956c5.915,3.294 37.311,15.652 45.667,50.61c0.006,0.027 4.065,27.232 -1.783,42.037c-6.366,16.118 -23.064,39 -23.438,33.881c-0.222,-3.039 5.263,0.038 21.124,-31.699c4.689,-10.442 9.727,-44.077 -8.696,-68.44c-9.12,-12.06 -14.1,-13.768 -24.697,-20.563c-0.097,0.065 -0.193,0.13 -0.29,0.195c45.774,45.133 3.107,109.534 2.221,102.872c-0.571,-4.293 19.531,-13.099 17.218,-61.378c-0.829,-17.302 -18.991,-47.618 -30.583,-43.779c-1.311,0.434 -0.641,-2.268 2.617,-1.559c6.197,1.348 -1.186,-1.714 -2.477,-2.623c-1.943,-1.368 -2.421,-2.421 -2.487,-2.511Z" style="fill:#fff;"/><path d="M257.113,468.878c10.583,0.165 10.27,4.015 20.79,2.589c14.928,-2.023 14.285,-4.386 15.577,-4.325c1.121,0.053 0.736,2.358 -12.984,5.3c-13.418,2.878 -13.353,-3.527 -27.002,-1.915c-16.14,1.906 -14.954,6.284 -16.218,5.739c-1.555,-0.67 -1.677,-5.074 19.837,-7.389Z" style="fill:#fff;"/><path d="M351.659,335.432c14.816,-2.681 16.175,9.123 14.84,11.605c-1.884,3.504 -0.384,-1.193 -1.424,-5.024c-1.576,-5.808 -14.173,-7.674 -10.952,-4.069c6.336,7.09 3.624,16.468 2.24,17.584c-2.501,2.016 -0.383,-1.032 0.124,-4.147c1.624,-9.975 -6.564,-13.585 -4.828,-15.949Z" style="fill:#fff;"/><path d="M270.03,348.695c-0.184,0.54 -0.368,1.079 -0.551,1.619c-3.162,-1.697 -11.476,-7.884 -43.07,1.91c-3.009,0.933 -3.44,-3.031 -2.106,-1.843c1.41,1.255 5.292,-0.881 13.601,-2.55c21.363,-4.29 23.845,-1.628 32.127,0.865Z" style="fill:#fff;"/><path d="M152.747,330.715c-9.155,-2.509 -13.2,-5.298 -22.53,-1.449c-0.807,0.333 -1.689,-0.759 0.214,-1.632c13.493,-6.195 15.089,5.913 35.743,0.191c12.881,-3.569 -1.887,2.026 -2.113,2.103c-5.283,1.79 -10.869,0.818 -11.314,0.788Z" style="fill:#fff;"/><path d="M385.368,261.756c-8.824,2.425 -9.597,1.928 -9.201,1.299c0.104,-0.166 11.881,-3.97 19.139,-4.62c10.654,-0.954 14.562,2.006 20.231,3.085c1.029,0.196 0.383,1.763 -2.055,0.979c-12.354,-3.975 -12.86,-4.124 -28.114,-0.743Z" style="fill:#fff;"/><path d="M126.639,334.294c-0.765,-0.692 0.063,-1.312 -1,-1.604c-0.157,-0.043 -4.101,-0.062 -7.764,-1.626c-6.59,-2.814 5.507,0.952 12.426,-0.194c0.39,-0.065 4.847,-0.803 4.937,0.167c0.018,0.195 0.537,0.571 -2.921,3.08l0.205,0.621c-0.379,1.007 -3.806,2.698 -5.884,-0.444Zm1.199,-1.056c0.985,1.96 1.541,0.991 3.35,-0.251c0.222,-0.152 -0.031,-1.796 -3.35,0.251Z" style="fill:#fff;"/><path d="M199.435,243.653c-5.909,0.493 -9.83,0.44 -11.505,3.728c-0.387,0.759 -2.405,-1.913 2.209,-3.448c21.441,-7.131 36.687,13.166 26.27,5.288c-5.966,-4.511 -15.552,-5.432 -16.975,-5.569Z" style="fill:#fff;"/><path d="M182.741,468.349c10.263,5.523 11.053,-3.794 14.007,-3.022c1.102,0.288 -5.928,8.825 -12.8,5.298c-5.883,-3.02 -6.249,-1.764 -12.048,1.236c-11.779,6.094 1.421,-2.361 1.63,-2.473c6.243,-3.385 6.595,-2.228 9.212,-1.039Z" style="fill:#fff;"/><path d="M222.492,460.596c0.536,0.398 0.772,0.301 0.613,0.884c-1.899,6.968 -10.177,-1.461 -12.765,-1.08c-7.623,1.123 -7.137,2.472 -7.789,2.525c-7.398,0.597 5.216,-3.334 5.728,-3.494c7.617,-2.374 9.222,7.472 14.213,1.165Z" style="fill:#fff;"/><path d="M88.594,405.473c-0.371,-0.243 -1.85,-1.209 -3.109,4.592c-0.376,1.732 3.304,-0.521 4.24,1.451c-5.919,3.086 -10.456,-3.997 -4.076,-5.649c0.055,-0.014 3.95,-5.352 5.683,-4.942c2.897,0.686 -3.193,1.362 -2.124,3.582c0.474,0.275 6.007,3.482 1.621,6.653c-1.008,-3.001 0.113,-3.52 -2.234,-5.687Zm-4.337,2.029c-0.367,1.032 -0.643,0.991 -0.292,1.719c0.72,1.491 0.43,-0.352 1.13,-1.775c-0.327,-0.379 -0.343,-0.207 -0.838,0.056Z" style="fill:#fff;"/><path d="M157.349,293.657c-1.054,2.018 -1.388,2.02 -0.921,2.498c3.266,3.347 3.477,3.154 3.817,4.342c1.211,4.229 -3.256,-2.624 -4.479,-3.1c-0.997,-0.388 -0.767,-0.603 -0.507,-1.671c1.402,-5.769 4.555,-4.363 7.574,0.682c2.504,4.184 -1.883,6.376 -1.05,4.472c1.729,-3.952 -1.543,-5.56 -3.825,-7.401c-0.203,0.059 -0.406,0.119 -0.609,0.178Z" style="fill:#fff;"/><path d="M109.518,319.424c6.625,0.324 -1.08,6.192 -2.338,3.752c-1.113,-2.159 -5.601,-1.483 -3.152,-2.781c0.394,-0.209 0.59,0.891 5.49,-0.971Zm0.835,1.349c-1.31,-0.113 -1.231,0.126 -1.885,0.941l0.021,0.576c1.334,-0.288 1.409,-0.274 1.864,-1.517Z" style="fill:#fff;"/><path d="M97.088,281.69c-1.342,-0.103 -5.072,0.629 -8.596,-3.239c-0.385,-0.423 0.048,-1.467 1.207,-0.662c5.264,3.658 6.152,0.983 12.089,3.375c5.86,2.361 -4.327,0.59 -4.7,0.525Z" style="fill:#fff;"/><path d="M131.133,413.221c-0.892,-5.544 1.382,-4.783 1.658,-4.515c0.172,0.167 -1.82,0.03 -0.313,2.98c6.188,-7.249 7.362,-6.595 7.412,-5.841c0.049,0.747 -1.264,-0.179 -6.428,6.799c-3.037,4.105 2.409,1.292 2.585,1.582c0.033,0.055 -0.457,1.257 -0.501,1.364c-2.938,0.714 -3.378,0.445 -4.413,-2.368Z" style="fill:#fff;"/><path d="M367.239,307.797c7.671,1.967 7.983,12.622 5.508,7.29c-5.208,-11.216 -9.506,-2.895 -10.718,-4.262c-0.32,-0.361 -1.158,-2.015 5.21,-3.028Z" style="fill:#fff;"/><path d="M433.035,279.625c-0.13,-13.11 -8.431,-11.435 -7.517,-13.981c0.834,-2.322 10.596,7.665 8.451,13.725c-0.094,0.267 0.055,0.745 -0.217,0.82c-0.293,0.08 -0.423,-0.644 -0.717,-0.564Z" style="fill:#fff;"/><path d="M220.688,455.028c-7.943,-0.049 0.802,-6.004 2.677,-3.973c1.477,1.6 -2.344,3.783 -2.677,3.973Zm-0.999,-1.322c3.531,-0.389 2.419,-1.785 2.193,-1.809c-1.733,-0.186 -1.894,0.08 -2.193,1.809Z" style="fill:#fff;"/><path d="M84.061,272.283c0.209,-0.118 5.351,-3.032 2.945,-0.591c-2.397,2.434 -0.472,4.601 -3.934,4.886c-0.749,0.062 -4.938,-1.667 0.988,-4.295Zm-0.461,1.673c-1.507,1.374 0.938,1.476 1.025,0.486c0.066,-0.751 -0.286,-0.445 -1.025,-0.486Z" style="fill:#fff;"/><path d="M389.564,336.522c4.49,2.272 -4.879,8.664 -3.807,2.821c0.364,-1.984 3.439,-2.732 3.807,-2.821Zm-1.975,2.399c-0.523,3.356 1.81,0.138 1.379,-0.485c-0.464,-0.671 -0.51,-0.117 -1.379,0.485Z" style="fill:#fff;"/><path d="M362.065,330.018c-3.534,-1.255 -1.087,-5.559 0.431,-5.555c7.734,-3.123 11.651,9.887 6.471,9.537c1.58,-4.481 2.034,-5.335 -1.925,-7.864c-2.166,-1.384 -2.235,-1.913 -4.541,-0.801c-0.615,2.106 -1.889,2.603 0.062,3.696c3.142,1.373 5.798,1.444 5.205,4.61c-1.487,-1.551 -2.329,-1.973 -5.704,-3.622Z" style="fill:#fff;"/><path d="M280.975,361.725c0.021,0.307 0.039,20.731 -1.328,3.611c-0.478,-5.992 1.341,-6.605 -2.68,-11.474c-0.572,-0.692 0.159,-1.557 0.853,-0.889c3.387,3.264 2.826,5.064 3.155,8.751Z" style="fill:#fff;"/><path d="M239.425,443.402c-0.318,-0.148 -3.834,-1.788 -1.025,-4.268c2.74,-2.419 6.688,2.984 1.025,4.268Zm-0.101,-2.821c-0.843,1.922 1.278,1.034 1.156,0.112c-0.081,-0.612 -1.072,-0.151 -1.156,-0.112Z" style="fill:#fff;"/><path d="M153.023,331.581c-0.836,4.085 -2.229,2.83 -2.362,2.583c-0.131,-0.245 1.272,-2.352 -0.572,-1.905c-1.518,0.368 -1.42,0.415 -2.293,0.67c-0.819,0.516 -1.556,-0.113 -1.274,0.802c0.124,0.402 0.809,0.446 0.933,0.847c-0.356,0.019 -3.859,0.486 -3.016,-0.868c2.499,-4.016 7.909,-2.339 8.585,-2.13Z" style="fill:#fff;"/><path d="M168.289,320.706c-0.624,0.527 -0.71,1.615 -1.885,0.32c-0.404,-0.445 -15.901,6.291 -4.957,0.568c0.489,-0.256 10.33,-5.402 6.841,-0.888Z" style="fill:#fff;"/><path d="M333.144,347.461c-0.207,-0.234 -2.18,-2.465 -1.853,-3.445c1.216,-3.636 6.924,4.611 1.853,3.445Zm0.355,-1.792c-0.555,-1.179 -0.452,-1.166 -0.555,-1.179c-1.537,-0.183 0.468,1.122 0.555,1.179Z" style="fill:#fff;"/><path d="M112.594,439.784c-0.586,0.24 -1.541,0.377 -3.028,0.33c-3.386,-1.775 1.591,-3.559 2.631,-3.138c0.219,0.089 2.093,1.793 0.702,2.656c-0.145,-0.227 -0.565,-0.654 -1.399,-1.375c-0.202,-0.175 -1.152,0.285 -1.245,0.33c0.048,0.03 1.613,0.952 2.339,1.198Z" style="fill:#fff;"/><path d="M307.989,346.892c-0.294,-0.125 -2.992,-1.272 -3.275,-2.273c-1.015,-3.592 8.235,1.063 3.275,2.273Z" style="fill:#fff;"/><path d="M193.371,448.463c-0.426,3.752 -5.603,0.473 -2.609,-1.839c1.478,-1.141 2.518,1.6 2.609,1.839Zm-1.359,0.478c-0.031,-1.659 -0.723,-0.964 -0.783,-0.89c-0.534,0.652 0.024,0.505 0.783,0.89Z" style="fill:#fff;"/><path d="M192.658,414.732c-4.156,-4.219 -4.275,-4.225 -4.232,-4.731c0.29,-3.41 11.199,11.72 4.232,4.731Z" style="fill:#fff;"/><path d="M317.906,355.036c0.259,-0.016 2.39,-0.145 2.855,1.547c0.755,2.75 -6.202,0.779 -2.855,-1.547Z" style="fill:#fff;"/><path d="M132.881,454.391c-0.173,-0.179 -2.038,-2.106 1.082,-2.911c1.002,-0.259 3.793,2.478 -1.082,2.911Z" style="fill:#fff;"/><path d="M139.056,413.634c-2.527,3.888 -1.272,-0.808 -1.232,-0.924c0.085,-0.248 -1.105,-5.684 1.253,-2.092c0.904,1.378 0.379,1.439 -0.02,3.016Z" style="fill:#fff;"/><path d="M178.513,448.492c-1.176,3.234 -4.22,1.153 -3.237,0.222c2.184,-2.069 3.108,-0.447 3.237,-0.222Z" style="fill:#fff;"/><path d="M171.461,307.918c1.34,-0.06 1.998,-0.596 1.966,0.812c-0.003,0.145 -0.03,1.329 -1.03,1.488c-2.132,0.34 -2.639,-0.956 -0.936,-2.3Z" style="fill:#fff;"/><path d="M168.429,443.092c-0.928,-1.123 -1.374,-1.517 -0.07,-2.167c2.016,-1.007 2.574,3.922 0.07,2.167Z" style="fill:#fff;"/><path d="M133.17,437.589c1.236,-3.127 2.701,-0.049 2.131,0.873c-1.288,2.086 -2.081,-0.696 -2.131,-0.873Z" style="fill:#fff;"/><path d="M353.931,348.959c-1.822,0.939 -3.463,-0.505 -0.872,-3.017c2.629,-1.227 2.649,0.982 0.872,3.017Z" style="fill:#fff;"/><path d="M261.96,448.027c-1.971,2.259 -3.15,-1.518 -1.221,-1.634c1.292,-0.078 1.1,0.385 1.221,1.634Z" style="fill:#fff;"/><path d="M391.096,352.349c-1.914,2.495 -2.511,-1.194 -1.013,-1.596c1.281,-0.344 1.2,0.247 1.013,1.596Z" style="fill:#fff;"/><path d="M125.684,418.865c0.168,-1.008 0.056,-1.322 1.045,-1.148c1.078,0.189 0.812,3.115 -1.045,1.148Z" style="fill:#fff;"/><path d="M402.205,357.587c0.914,-0.609 0.828,-0.627 0.914,-0.609c0.802,0.165 -0.141,2.405 -0.914,0.609Z" style="fill:#fff;"/></g></svg>