<?xml version="1.0" encoding="UTF-8" standalone="no"?>
<!DOCTYPE svg PUBLIC "-//W3C//DTD SVG 1.1//EN" "http://www.w3.org/Graphics/SVG/1.1/DTD/svg11.dtd">
<svg width="952" height="1116" viewBox="0 0 952 1116" version="1.1" xmlns="http://www.w3.org/2000/svg" xmlns:xlink="http://www.w3.org/1999/xlink" xml:space="preserve" xmlns:serif="http://www.serif.com/" style="fill-rule:evenodd;clip-rule:evenodd;stroke-linejoin:round;stroke-miterlimit:2;">
    <g id="アートボード1" transform="matrix(0.732308,0,0,1,-90.073846,-156)">
        <rect x="123" y="156" width="1300" height="1116" style="fill:none;"/>
        <g id="_470.png" serif:id="470.png" transform="matrix(1.418888,0,0,1.039062,290.962185,269)">
            <path d="M91.877,706.306C87.491,696.989 94.491,706.285 94.588,706.479C97.147,711.619 91.946,718.347 112.58,722.07C135.481,726.203 137.786,719.252 152.817,731.108C160.119,736.868 174.205,743.477 169.444,736.537C167.42,733.588 154.454,728.419 152.674,727.203C139.998,718.543 140.47,717.731 125.495,713.518C119.525,711.838 119.868,711.315 113.241,707.887C108.877,705.863 92.687,701.727 106.457,703.148C150.476,707.689 145.102,727.794 168.446,728.719C168.663,728.797 168.602,728.545 171.277,729.284C174.927,722.449 168.069,725.686 160.764,721.078C152.646,715.957 145.063,714.681 142.878,692.499C151.745,688.868 138.804,705.415 158.511,716.48C165.343,720.316 164.943,721.554 174.427,722.325C174.707,721.365 176.567,714.991 171.782,710.102C171.143,709.449 151.721,709.877 154.81,705.746C155.358,705.013 186.618,707.696 164.54,703.306C154.273,701.265 153.452,695.736 156.549,697.093C163.765,700.256 164.355,698.092 171.327,701.81C172.003,702.17 179.588,719.925 182.144,713.299C196.735,675.475 229.158,564.333 250.513,522.507C280.591,463.597 304.718,412.973 311.11,404.347C313.999,396.117 313.989,396.173 314.23,395.459C320.083,378.107 286.047,444.264 278.786,451.828C262.052,485.606 147.256,648.332 101.771,694.706C101.674,694.805 101.701,700.137 99.531,697.454C97.5,694.942 98.082,694.322 90.559,691.334C81.777,688.174 81.957,688.092 73.547,684.361C70.46,682.991 66.807,687.703 64.696,684.575L65.457,683.439C66.078,683.217 71.936,681.119 73.486,681.576C75.573,682.191 81.032,685.403 82.498,685.447C88.659,685.629 93.033,690.231 100.472,691.716C105.672,692.755 204.02,564.755 235.595,515.559C274.129,455.519 275.108,455.537 274.403,453.251C262.071,460.651 261.718,459.566 248.898,465.948C248.056,466.206 247.034,466.52 238.571,462.134C228.663,465.862 208.526,468.718 201.733,469.028C198.069,478.421 192.551,486.318 180.609,493.668C174.212,497.606 178.871,490.931 180.132,482.459L180.459,480.5C178.419,469.588 161.918,468.852 160.036,468.768C159.366,464.672 174.502,463.467 183.78,481.379C186.079,485.844 186.426,486.113 187.447,485.397C196.054,479.361 198.69,473.393 208.743,436.729C213.183,441.462 209.518,442.11 207.527,449.509C205.703,456.287 204.216,462.356 202.161,467.903C203.011,467.696 204.076,467.459 205.375,467.19C221.111,463.939 221.103,464.422 236.724,460.388C224.395,450.872 217.46,443.928 210.755,435.341C207.027,429.951 206.129,429.558 205.545,429.302C201.528,433.484 197.428,435.116 196.862,435.579C196.305,436.035 204.555,444.048 204.603,445.423C204.84,452.243 202.036,444.841 194.502,437.481L193.494,437.451C190.524,439.244 184.992,443.069 170.756,448.891C161.944,451.272 168.407,458.098 160.436,462.325C157.784,463.732 161.589,455.174 161.844,454.6C161.239,454.574 161.139,453.367 160.534,453.341L155.561,454.58C150.022,458.343 153.224,460.843 148.255,465.152C142.797,469.887 148.375,459.923 148.595,459.529C148.09,459.625 148.033,458.321 147.528,458.416C146.139,458.679 146.355,459.291 130.751,463.968C129.413,464.369 129.479,464.544 129.615,466.062C144.229,468.024 143.221,470.56 152.645,475.184C157.008,477.325 155.8,474.137 156.34,472.396C156.69,471.27 165.081,475.293 146.477,498.493C149.533,500.28 157.332,500.975 159.936,496.838C160.928,495.261 164.209,496.829 165.301,496.018C175.582,488.374 162.274,473.247 160.594,470.517C168.165,471.25 169.083,481.532 171.612,483.006C176.167,485.66 169.811,494.514 169.225,495.33C160.779,507.002 146.576,501.64 144.693,500.929C139.902,506.003 158.929,505.839 169.049,500.953C169.532,502.049 171.121,505.656 155.479,507.262C147.451,508.086 145.449,501.765 133.274,511.112C124.836,517.591 135.343,504.146 135.73,503.651L133.89,500.998L131.544,502.691C129.789,502.397 129.893,502.459 128.485,501.385C122.184,504.262 122.123,504.429 121.569,504.206C118.084,502.801 126.101,498.932 126.641,498.671C126.378,498.395 127.207,497.842 126.944,497.566C126.842,497.459 126.932,497.524 107.402,488.844C100.014,486.331 100.215,486.318 99.583,486.12C97.518,485.71 97.67,485.971 95.489,485.538C94.842,485.409 95.009,485.219 87.451,483.712C45.883,475.419 22.407,493.114 18.447,492.587C17.986,492.525 16.233,490.82 22.438,488.345C69.734,469.486 93.567,486.058 100.376,482.275C101.115,481.864 103.842,469.006 103.329,468.99C103.07,468.981 90.016,468.455 101.465,466.347C117.517,463.39 97.13,461.441 89.425,450.587C84.666,448.986 80.539,451.452 74.895,447.026C66.424,440.383 65.955,441.424 55.614,438.163C47.465,435.594 44.311,418.246 48.068,424.865C54.925,436.942 56.667,435.392 69.588,440.214C78.447,443.52 77.012,447.685 86.449,447.401C89.772,447.301 77.062,440.451 76.169,439.969C69.932,436.607 79.596,437.252 92.211,446.977L93.397,447.614C100.189,450.773 105.195,455.499 107.649,457.198C114.606,462.012 104.325,449.154 95.514,446.318L93.526,445.452L92.919,445.49L89.153,441.723C86.875,438.646 86.83,438.701 86.693,438.399C84.918,434.501 79.987,435.833 82.769,431.656C89.279,421.879 88.089,438.826 90.444,438.742C93.498,438.634 93.218,439.136 95.713,441.222C106.022,448.039 108.234,443.595 114.352,449.584C120.551,455.654 111.919,448.866 103.47,446.865C99.111,445.833 108.92,452.169 109.474,452.527C114.687,455.894 111.214,457.144 108.785,462.77C98.94,485.574 182.395,357.923 200.817,319.539C199.448,317.77 199.276,317.837 199.728,315.569C196.237,315.906 196.983,317.072 185.486,328.486C84.906,428.334 71.234,438.437 77.751,428.639C81.509,422.99 83.743,425.258 139.257,370.245C202.205,307.865 203.598,309.294 260.902,241.836C277.841,221.897 278.198,222.426 279.261,221.28C288.004,215.928 348.088,82.507 344.6,103.516C343.375,110.896 340.939,109.877 301.946,186.741C292.371,205.615 287.93,213.946 292.5,208.165C296.753,202.785 304.353,209.083 299.52,208.222C289.864,206.501 289.962,211.136 220.569,345.536C213.752,358.739 214.539,358.9 213.087,365.392C212.367,369.977 203.347,427.466 212.487,423.402C213.004,423.172 229.647,415.771 219.502,422.502C218.474,423.184 215.461,424.481 219.254,424.982C254.547,429.639 212.187,426.931 211.554,426.887C204.955,426.425 214.115,435.165 218.116,439.821C231.462,455.355 242.665,461.191 246.483,463.612C245.533,458.254 246.085,458.041 246.513,457.876C248.648,457.052 246.964,463.555 253.458,461.373C264.46,457.678 280.047,447.364 281.217,445.229C303.156,405.197 303.954,405.796 315.105,387.289C315.263,387.027 315.17,387.013 315.991,383.563C315.681,381.093 315.954,374.891 312.675,373.326C309.202,374.18 296.732,413.943 265.346,434.211C256.113,440.174 265.195,431.487 265.385,431.361C301.617,407.291 332.368,336.877 322.639,273.475C316.547,233.777 305.19,231.374 308.8,225.215C306.542,223.472 306.684,223.651 306.542,223.472C299.095,214.066 310.952,223.62 311.246,223.857C358.12,261.626 357.499,364.757 342.443,377.424C338.224,380.974 344.214,368.941 345,365.387C362.197,287.644 322.372,240.431 310.489,226.513C310.7,227.039 308.893,226.974 309.104,227.5C310.298,230.478 312.564,232.908 314.167,235.688C324.395,253.428 330.306,294.038 324.683,326.536C317.223,369.65 309.811,371.368 313.517,371.531C319.282,370.924 316.398,374.59 318.95,379.768C320.901,370.384 321.201,370.663 324.011,361.354C337.072,318.079 339.695,313.868 340.292,317.558C340.544,319.114 314.018,413.241 311.677,421.545C301.964,456.136 302.801,456.227 296.319,491.468C295.606,495.343 285.597,548.87 286.25,550.633C286.978,552.599 286.01,552.344 285.285,554.387C284.832,555.665 270.572,636.283 270.644,636.44C270.754,636.682 270.914,636.372 287.464,620.464C294.413,613.783 290.324,612.255 288.139,590.535C283.309,542.529 317.424,401.308 321.41,402.752C321.611,402.825 307.536,466.844 301.428,493.484C299.613,501.399 286.989,556.458 291.51,594.499C295.302,626.4 296.175,628.417 298.445,627.028C317.772,615.205 337.987,598.648 338.416,598.35C340.541,596.878 342.182,598.55 340.151,600.067C302.964,627.826 302.367,626.953 299.225,629.48C298.537,630.034 299.154,630.313 308.634,635.256C309.228,635.566 348.793,656.594 314.647,641.084C306.443,637.357 300.639,633.779 300.457,633.695C297.214,632.193 301.589,638.889 301.841,639.274C340.127,697.862 348.012,697.32 364.628,704.834C367.413,701.901 367.491,702.137 370.052,699.124C514.83,528.719 398.928,438.187 367.456,410.698C367.602,411.05 366.494,411.145 366.64,411.497C367.914,414.566 373.157,410.819 390.484,445.508C394.462,453.472 411.295,469.396 408.768,530.512C408.46,537.964 406.971,573.968 377.012,618.162C371.375,626.476 344.379,656.422 346.558,647.521C347.39,644.123 352.057,648.048 376.039,615.221C378.649,611.649 393.518,591.296 400.32,565.537L401.381,562.421C415.424,487.666 401.363,474.095 383.607,437.448C378.192,426.273 377.024,427.122 365.037,412.961C352.76,398.458 347.009,398.739 344.439,397.648C344.044,397.538 322.905,391.642 340.478,394.391C342.704,394.739 342.544,394.367 344.907,394.341C335.858,388.705 333.638,387.036 332.704,386.335C331.918,385.744 332.358,383.04 335.246,384.932C402.537,429.016 417.848,458.86 430.871,483.171C434.994,483.162 434.339,484.503 439.714,488.241C442.309,489.458 442.269,489.537 442.516,489.555C444.961,489.74 444.083,488.334 461.039,465.135C499.607,412.37 499.337,412.32 563.02,325.141C573.354,310.994 573.167,311.042 608.15,263.276C619.882,247.17 631.53,195.133 639.698,176.589C658.215,134.553 617.714,241.827 620.465,251.491C616.996,263.741 614.148,276.604 601.684,333.541C594.529,366.224 594.963,366.146 592.28,399.481C589.745,430.985 599.224,455.09 591.884,437.347C585.903,422.889 593.045,381.469 591.052,379.191C580.681,426.51 581.184,426.495 569.995,473.527C577.71,472.941 594.222,449.483 602.511,451.491L604.377,453.762C606.376,456.673 606.693,472.077 642.359,487.811C649.715,491.055 649.733,491.696 649.267,492.153C646.673,494.697 618.614,479.635 608.664,467.257C605.636,463.491 607.139,468.982 607.094,487.494C607.014,520.437 598.243,531.495 603.446,529.349C640.427,514.098 655.845,493.69 651.851,502.586C651.366,503.665 626.139,523.55 605.415,531.25C595.161,535.059 598.473,541.18 595.327,546.404C587.952,558.645 596.213,536.329 596.518,535.506C598.774,529.411 609.49,500.462 602.827,454.505C602.667,454.373 602.574,454.688 600.471,453.437C592.567,457.7 583.199,468.427 571.653,476.646C565.803,481.191 568.95,482.978 555.827,535.55C555.035,538.786 554.501,538.947 556.485,541.508C558.155,543.665 553.994,543.27 553.794,543.742C549.673,553.458 551.129,554.298 540.735,566.664C538.905,568.84 554.708,579.69 561.384,570.411C571.396,556.496 559.358,576.738 561.758,578.325C563.594,579.54 583.984,583.147 596.483,573.393C593.894,573.177 594.049,573.315 593.894,573.177C589.045,568.869 604.492,559.596 600.837,570.597L599.349,572.378C602.871,577.449 594.788,577.651 587.988,579.867C585.125,580.8 592.538,582.108 604.552,585.18C607.282,585.878 608.411,582.974 614.57,579.623C624.617,574.157 617.513,587.058 619.566,587.143C632.554,587.681 642.201,578.221 643.702,576.749C645.583,574.905 647.317,581.147 633.331,587.094C625.494,590.426 606.572,590.528 606.511,590.487C590.572,579.673 580.389,585.07 560.54,581.119C556.367,580.288 554.114,587.171 550.828,580.335C548.395,577.94 543.816,579.341 536.729,575.129C533.821,573.402 533.77,573.108 530.475,574.439C529.804,574.71 528.417,575.271 521.443,574.717L518.473,574.417C516.023,574.499 516.647,573.629 515.634,571.405C515.126,570.291 514.375,571.771 501.563,565.38C499.325,564.264 472.244,563.329 455.453,575.335C454.389,576.096 452.268,572.912 456.669,570.839C475.98,561.738 497.849,562.885 495.147,560.855C491.736,558.292 491.855,558.428 488.482,555.536C487.754,557.056 487.75,557.769 486.262,556.796C482.332,546.965 481.426,546.692 484.541,536.514C485.808,532.371 488.783,533.367 489.204,533.508C486.872,536.699 486.593,538.056 486.502,538.5C484.381,548.801 485.562,549.422 493.868,556.024C505.901,565.589 507.516,561.336 522.542,564.131C528.496,565.457 528.368,565.3 534.449,566.783C539.837,568.098 553.665,542.655 550.117,540.914C525.167,528.673 523.6,534.586 521.525,533.453C513.007,528.801 498.139,532.25 490.551,531.07C479.668,529.799 479.258,530.761 465.419,522.631C454.941,516.475 452.61,521.549 443.812,514.046C438.147,509.215 442.749,516.781 443.818,533.478C449.649,624.563 367.31,700.603 368.774,707.434C367.651,708.971 367.802,708.992 367.651,708.971C360.246,707.963 316.309,739.103 305.256,737.232C302.471,741.562 292.983,758.081 287.975,755.264C285.112,752.281 285.441,749.898 283.593,747.364L272.275,752.327C272.791,757.294 267.61,759.697 272.545,760.416C302.517,764.78 318.321,788.308 364.639,763.894C374.984,758.442 343.762,789.518 300.581,772.295C281.535,764.697 275.835,759.94 267.685,765.763L267.151,767.518L266.828,768.702C261.205,771.981 242.791,766.998 239.694,765.192C223.162,755.556 251.601,767.842 257.436,764.34C264.058,758.702 272.295,763.677 269.598,753.236L267.602,752.92C264.926,751.829 265.866,751.144 264.786,747.404C263.629,743.399 258.499,747.12 259.934,744.596C262.782,739.584 263.206,738.4 255.746,731.33C255.884,724.187 264.413,739.466 264.367,736.39C264.32,733.232 257.745,726.348 256.479,724.511C256.634,719.689 258.856,724.562 260.494,724.47C282.752,723.225 284.951,748.76 289.713,752.989C290.401,752.286 297.63,744.907 297.522,743.498C297.473,742.85 294.804,744.478 293.073,736.7C288.23,714.943 281.015,718.275 281.705,716.558C282.089,715.602 285.959,705.961 286.766,704.712C286.896,704.511 290.142,702.874 288.055,707.404C286.21,712.801 283.497,713.531 287.648,717.35C294.177,723.358 302.24,757.686 299.434,736.504C299.195,734.7 301.665,734.567 298.146,722.598C295.277,712.84 291.833,712.06 289.525,707.578C292.649,706.746 301.267,711.688 302.534,734.471C303.078,744.241 319.203,690.646 315.328,682.582C302.626,671.04 299.254,670.957 279.528,672.819C279.248,672.845 268.15,673.892 276.621,670.846C297.887,663.199 314.083,678.252 316.487,680.486C315.968,655.02 308.466,657.517 295.1,632.779C292.118,627.26 293.458,626.972 292.041,620.768C291.418,618.037 287.195,626.326 270.91,638.749C268.341,640.709 260.239,704.364 254.01,723.531L254.137,724.494L253.285,729.424C243.666,759.991 239.529,761.986 207.457,762.067C193.551,770.273 177.55,761.243 175.305,759.976C167.823,755.754 168.217,771.334 154.619,769.002C143.231,767.05 157.225,766.852 157.514,766.848C162.825,766.772 170.303,758.6 168.212,756.795C163.307,755.247 163.394,755.402 158.43,753.707C130.901,744.307 94.28,752.878 85.245,766.295C81.082,772.478 82.809,760.511 94.427,755.345C132.987,738.202 165.24,754.013 168.41,753.477C168.919,751.169 168.144,750.371 170.442,750.126C175.63,749.572 170.82,759.982 189.538,762.188C202.79,763.75 202.557,760.94 202.358,759.917C185.85,756.226 186.392,754.852 181.23,751.932C175.348,748.604 170.655,747.415 176.327,743.685C178.099,752.088 205.649,758.452 209.453,758.799C234.365,761.067 241.521,758.308 250.706,729.451C250.675,729.44 241.546,724.507 215.523,725.936C200.744,727.239 200.771,727.295 199.487,727.392C179.369,729.276 177.691,731.095 177.27,727.584C176.843,724.021 168.166,736.837 175.012,741.888C166.661,749.26 150.95,727.243 136.478,726.743C115.077,726.003 90.513,725.08 93.717,709.6C93.755,709.415 93.717,709.6 92.437,707.611C88.036,709.073 88.127,707.445 74.594,702.165C60.702,700.402 60.113,697.594 60.224,683.547C60.456,654.161 62.821,690.814 62.864,691.481C63.002,693.618 63.718,704.729 89.604,692.668C91.511,697.157 78.589,699.303 77.492,699.485C87.671,705.239 87.234,706.408 91.877,706.306ZM266.416,643.522C253.152,657.833 248.463,660.484 246.597,661.539C242.836,669.972 229.337,719.443 230.521,720.462C231.794,721.558 231.978,720.876 251.5,721.511C253.917,720.128 256.105,702.094 257.078,695.565C262.287,669.575 261.963,669.743 266.416,643.522ZM508.433,565.53C509.359,565.956 519.487,570.621 521.129,566.514C518.544,566.086 515.723,564.095 508.433,565.53ZM612.139,270.23C606.056,287.89 607.697,288.379 544.108,493.573C554.909,488.021 553.536,486.185 564.036,480.163C570.578,475.354 596.314,332.809 603.648,308.548C615.014,270.947 612.301,270.598 612.139,270.23ZM209.01,368.123C205.866,374.324 205.785,374.124 169.423,445.478C174.55,447.324 203.471,430.215 183.323,438.651C183.052,438.765 181.921,437.318 184.519,435.523C187.371,433.552 191.87,434.263 192.508,434.364L194.487,434.404C199.243,431.438 198.99,431.441 203.573,428.55C206.851,425.86 202.243,418.867 205.489,422.529C207.479,424.774 209.101,427.534 208.565,424.521C206.072,410.485 206.762,410.581 206.809,396.471C208.185,379.781 207.895,379.888 208.821,375.546C209.251,373.526 210.284,371.602 210.337,369.537C210.353,368.891 208.993,368.77 209.01,368.123ZM86.344,432.781C83.169,433.029 85.874,434.821 86.281,434.362C86.365,434.267 86.281,434.362 86.344,432.781ZM264.497,766.808C264.682,762.28 262.213,763.24 258.652,766.009L264.497,766.808ZM605.297,281.522C602.99,283.64 600.861,287.931 600.56,288.538C582.184,325.592 547.863,383.91 550.66,385.294C558.676,389.26 559.06,388.375 565.711,394.111C566.227,394.556 566.945,394.523 569.563,386.521C578.81,358.248 578.914,358.398 593.416,315.473C604.262,284.18 604.503,284.288 605.297,281.522ZM462.542,486.35C459.037,488.743 457.918,489.849 461.327,492.605C462.687,493.704 458.178,496.454 472.784,511.225C477.643,516.139 479.163,512.298 486.574,515.705L485.208,512.743C478.974,502.498 467.606,508.692 471.626,504.668C472.162,504.131 472.253,504.38 478.598,504.654L479.656,504.541C473.081,496.411 462.553,501.404 467.517,497.524C472.231,493.839 482.505,503.517 483.521,504.474C488.051,508.741 490.548,506.561 492.081,512.586L493.794,514.875C494.71,512.887 528.504,426.962 533.141,415.366C537.685,404.003 548.18,377.757 603.065,279.302C609.255,269.44 609.064,269.374 609.605,268.522C606.915,263.807 606.88,270.336 568.326,322.374C558.37,335.812 446.234,487.164 445.404,491.477C445.2,492.542 445.429,492.385 445.228,493.42C445.175,493.693 445.013,493.49 444.945,493.84L443.17,495.88C450.198,498.977 469.622,514.317 471.822,516.055C479.986,522.502 488.243,518.803 487.911,525.473L488.407,526.966C495.948,513.124 479.74,521.53 471.7,513.326C464.129,505.601 460.238,502.412 459.47,495.51C459.304,494.012 448.372,488.024 458.357,482.211C462.166,479.994 465.227,481.864 465.73,482.172C466.07,482.638 467.553,484.668 466.141,489.371C465.014,493.128 464.615,488.514 462.542,486.35ZM282.557,744.487C279.882,739.349 281.063,734.311 267.343,727.849C267.02,727.697 260.762,724.749 262.913,728.334C265.97,733.428 264.486,734.433 269.391,737.642C272.547,739.706 268.302,740.582 268.326,750.504C275.871,748.341 275.619,747.959 282.557,744.487ZM362.555,707.534C358.472,705.338 358.806,705.192 354.611,703.262C335.551,694.489 318.155,666.045 318.662,671.545C319.545,681.114 319.841,681.007 318.106,690.421C313.957,712.93 315.086,713.1 306.375,734.473C313.444,735.904 343.788,716.561 362.555,707.534ZM111.529,467.871C105.781,468.78 106.786,470.266 104.111,475.392C100.356,482.585 108.852,477.587 124.225,487.897C140.602,498.881 146.123,499.451 154.692,481.581C155.818,479.233 154.438,479.288 145.309,473.83C135.144,467.753 114.273,467.857 111.529,467.871ZM95.61,451.311C93.714,451.395 92.651,449.517 92.746,451.438C92.777,452.057 97.28,454.867 97.7,455.129C114.616,465.685 95.9,451.504 95.61,451.311ZM228.864,681.497C205.948,701.553 185.927,731.358 184.651,722.442C183.86,716.913 181.06,724.309 180.938,724.631C180.669,726.77 180.313,727.99 182.325,727.183C198.185,720.824 198.359,721.325 215.528,720.682C218.424,720.574 217.334,719.048 228.864,681.497ZM219.641,335.836C190.086,390.556 161.593,441.354 156.47,450.488C156.474,450.488 156.245,452.24 162.515,450.522C166.651,447.861 176.001,425.753 207.512,365.506C219.968,341.691 221.264,337.941 219.641,335.836ZM294.896,486.427C294.735,486.852 293.886,485.303 293.725,485.728C291.817,490.777 278.182,543.509 276.88,548.546C276.29,550.826 283.008,551.337 283.361,549.435C284.296,544.397 290.557,510.669 294.896,486.427ZM305.768,417.986C283.24,465.713 245.008,536.588 246.661,538.41C254.659,547.229 257.677,543.765 264.731,553.296C267.775,557.407 267.525,551.568 284.786,492.583C305.111,423.125 310.557,410.376 305.768,417.986ZM141.413,497.784C123.765,496.064 116.044,479.74 108.096,485.176C109.135,486.953 108.983,486.89 109.135,486.953C119.226,491.113 119.11,491.03 128.52,496.434C133.573,498.26 134.507,498.98 134.954,499.325C138.24,501.263 138.214,501.26 138.503,501.419C139.027,501.706 139.019,501.443 139.559,501.739C141.368,500.193 141.29,500.281 142.93,498.506C142.581,497.521 142.501,497.633 141.413,497.784ZM216.718,299.69C198.82,320.158 203.542,323.078 189.147,346.293C170.035,377.113 170.704,377.36 150.995,407.85C134.271,433.721 135.041,433.984 116.753,458.694C106.664,472.326 138.656,459.15 147.301,456.13C154.791,452.753 152.996,450.753 173.288,414.387C176.836,408.03 216.982,336.082 216.852,334.488C216.825,334.155 204.859,324.766 208.224,316.343C212.804,304.879 206.623,325.268 217.538,331.176C220.313,332.678 220.665,325.694 261.261,254.345C261.077,254.995 263.014,254.979 262.83,255.629C262.094,258.22 260.176,260.318 258.892,262.685C227.278,320.958 229.43,322.165 220.767,333.533C222.442,335.13 222.988,335.347 224.172,333.286C228.609,325.565 237.329,307.948 239.551,303.527C264.051,254.765 266.971,254.008 263.525,250.514C272.534,236.517 274.045,233.998 274.921,232.538C268.58,233.423 243.754,268.574 216.718,299.69ZM228.891,678.745C237.959,657.138 261.956,570.046 264.58,560.521C266.481,553.624 244.832,540.277 243.907,541.792C241.829,545.199 198.699,673.164 194.841,684.613C186.644,708.934 182.807,716.517 185.829,718.051C193.871,722.131 212.347,689.278 228.891,678.745ZM183.729,488.649C183.283,485.054 183.447,485.008 183.247,484.766C181.803,483.02 179.141,493.433 183.729,488.649ZM565.587,481.474C548.695,493.828 548.981,494.228 544.331,496.33C542.368,498.338 541.603,499.12 532.997,529.555C532.59,530.996 533.308,531.086 549.703,538.002C553.531,539.617 557.585,517.449 565.587,481.474ZM431.383,485.511C439.693,504.015 434.813,508.916 450.686,515.024C458.611,518.075 459.402,515.562 466.64,520.277C482.944,530.896 485.276,528.667 486.498,527.499L485.595,524.399C482.251,522.614 478.053,523.884 470.684,518.267C455.574,506.749 456.712,503.507 447.478,504.091C445.585,504.211 436.001,492.147 434.714,489.317C433.516,486.682 434.308,485.54 431.383,485.511ZM592.718,324.594C563.124,412.477 563.704,412.502 534.294,500.54C534.604,500.438 536.577,499.785 538.191,499.297C539.139,498.256 539.473,498.328 571.238,397.401C592.269,330.579 593.476,330.619 592.718,324.594ZM528.39,506.417C532.09,502.333 539.278,476.09 560.826,412.609C564.771,400.986 569.808,398.009 559.21,391.981C551.918,387.833 549.753,384.182 545.768,391.638C543.544,395.797 491.607,527.595 491.466,528.614L499.477,527.389C500.786,525.655 524.336,508.154 528.39,506.417ZM545.566,575.786C544.56,568.923 531.825,569.899 538.65,573.171C542.131,574.84 541.986,574.592 545.566,575.786ZM242.562,723.805C245.829,725.72 245.751,725.585 249.487,726.524L251.604,726.558C251.088,721.627 248.778,724.179 242.562,723.805ZM234.137,674.251C233.277,676.287 232.315,678.563 225.831,700.601C221.117,716.622 223.105,717.315 222.01,718.258C216.62,722.904 226.592,720.979 227.122,719.27C228.409,715.117 241.728,672.147 240.742,666.658C244.266,660.777 259.357,599.044 293.278,480.452C297.995,464.072 297.972,464.295 302.03,447.508C301.21,448.285 301.404,445.979 300.669,446.675C300.49,446.845 300.613,446.728 299.788,449.633C275.382,535.495 235.025,668.029 234.137,674.251ZM265.373,642.443C267.278,639.889 267.093,639.82 281.42,560.482C283.861,546.964 275.944,552.964 275.641,553.614C275.155,554.653 249.35,648.685 246.274,659.524C264.065,643.744 263.453,643.162 265.373,642.443ZM528.883,507.555C526.758,509.292 516.698,517.512 501.559,528.31C511.099,528.697 510.954,528.496 520.471,529.077C523.197,529.243 528.372,509.205 528.883,507.555ZM599.508,569.905C599.457,567.89 599.616,567.92 599.457,567.89C598.492,567.713 595.078,570.532 599.508,569.905ZM461.716,484.636C457.305,480.496 456.098,489.46 457.438,488.615C457.834,488.366 457.343,487.929 461.716,484.636ZM538.84,501.393C535.95,502.615 535.936,502.549 535.718,502.711C532.031,505.392 531.291,508.923 525.444,527.488C524.55,530.327 527.832,530.264 528.502,530.309C530.844,530.465 536.313,509.605 538.84,501.393ZM609.619,586.386C612.023,587.093 612.131,587.586 614.23,586.104C626.178,577.664 611.099,584.708 610.852,584.855L609.619,586.386ZM179.501,721.503C182.343,714.17 178.128,715.625 177.684,715.802C176.634,716.222 177.379,716.616 179.501,721.503Z" style="fill:white;"/>
            <path d="M625.948,245.367C627.521,241.554 627.99,246.19 636.731,251.057C648.115,257.397 708.548,281.185 724.63,348.473C724.643,348.525 732.454,400.89 721.199,429.385C708.945,460.41 676.804,504.452 676.086,494.599C675.659,488.749 686.216,494.671 716.746,433.585C725.772,413.486 735.469,348.744 700.009,301.851C682.455,278.637 672.869,275.35 652.472,262.27C652.286,262.396 652.1,262.521 651.914,262.646C740.021,349.52 657.895,473.479 656.188,460.657C655.089,452.394 693.782,435.444 689.33,342.516C687.735,309.214 652.775,250.86 630.464,258.249C627.941,259.085 629.231,253.884 635.502,255.248C647.429,257.843 633.22,251.949 630.734,250.2C626.995,247.568 626.075,245.54 625.948,245.367Z" style="fill:white;"/>
            <path d="M376.517,793.749C396.887,794.066 396.286,801.477 416.535,798.733C445.269,794.84 444.032,790.29 446.518,790.409C448.675,790.512 447.934,794.948 421.526,800.611C395.699,806.15 395.824,793.822 369.552,796.925C338.485,800.593 340.768,809.02 338.335,807.972C335.342,806.682 335.107,798.204 376.517,793.749Z" style="fill:white;"/>
            <path d="M558.501,536.892C587.02,531.732 589.635,554.452 587.066,559.23C583.439,565.975 586.326,556.934 584.325,549.56C581.292,538.381 557.044,534.79 563.244,541.727C575.439,555.373 570.22,573.425 567.555,575.573C562.741,579.453 566.818,573.587 567.794,567.592C570.919,548.391 555.159,541.443 558.501,536.892Z" style="fill:white;"/>
            <path d="M401.381,562.421C401.028,563.46 400.674,564.498 400.32,565.537C394.234,562.27 378.232,550.361 317.418,569.213C311.626,571.008 310.797,563.378 313.365,565.665C316.078,568.081 323.551,563.968 339.544,560.757C380.662,552.5 385.441,557.624 401.381,562.421Z" style="fill:white;"/>
            <path d="M175.633,527.813C158.011,522.984 150.226,517.615 132.266,525.024C130.712,525.665 129.016,523.564 132.679,521.882C158.651,509.958 161.721,533.263 201.478,522.25C226.271,515.381 197.845,526.15 197.41,526.297C187.241,529.741 176.49,527.871 175.633,527.813Z" style="fill:white;"/>
            <path d="M623.384,395.079C606.4,399.746 604.911,398.79 605.674,397.579C605.875,397.26 628.542,389.938 642.513,388.687C663.02,386.851 670.541,392.548 681.453,394.625C683.433,395.002 682.19,398.019 677.498,396.51C653.719,388.858 652.745,388.571 623.384,395.079Z" style="fill:white;"/>
            <path d="M125.38,534.7C123.909,533.368 125.501,532.175 123.456,531.612C123.155,531.529 115.563,531.494 108.512,528.483C95.828,523.067 119.111,530.314 132.43,528.109C133.181,527.984 141.76,526.564 141.933,528.43C141.968,528.806 142.966,529.529 136.311,534.359L136.705,535.555C135.976,537.493 129.379,540.748 125.38,534.7ZM127.689,532.667C129.584,536.439 130.654,534.575 134.137,532.184C134.563,531.891 134.077,528.728 127.689,532.667Z" style="fill:white;"/>
            <path d="M265.499,360.234C254.125,361.184 246.579,361.08 243.354,367.409C242.609,368.871 238.726,363.727 247.607,360.773C288.876,347.048 318.222,386.115 298.172,370.953C286.69,362.269 268.237,360.497 265.499,360.234Z" style="fill:white;"/>
            <path d="M233.365,792.731C253.12,803.362 254.64,785.429 260.325,786.915C262.446,787.469 248.915,803.902 235.688,797.112C224.364,791.299 223.659,793.716 212.497,799.491C189.824,811.221 215.232,794.947 215.633,794.73C227.65,788.215 228.327,790.442 233.365,792.731Z" style="fill:white;"/>
            <path d="M309.879,777.808C310.911,778.575 311.365,778.387 311.059,779.511C307.403,792.923 291.471,776.698 286.489,777.432C271.817,779.594 272.752,782.19 271.495,782.291C257.255,783.44 281.535,775.874 282.521,775.567C297.182,770.998 300.271,789.949 309.879,777.808Z" style="fill:white;"/>
            <path d="M52.15,671.708C51.436,671.241 48.589,669.381 46.165,680.547C45.442,683.88 52.525,679.545 54.327,683.339C42.933,689.279 34.2,675.646 46.481,672.466C46.586,672.439 54.084,662.164 57.419,662.954C62.995,664.275 51.273,665.576 53.331,669.849C54.243,670.378 64.892,676.552 56.451,682.654C54.511,676.877 56.668,675.878 52.15,671.708ZM43.802,675.614C43.097,677.6 42.564,677.522 43.24,678.923C44.625,681.793 44.068,678.246 45.416,675.506C44.785,674.776 44.755,675.107 43.802,675.614Z" style="fill:white;"/>
            <path d="M184.49,456.482C182.461,460.366 181.818,460.37 182.717,461.291C189.004,467.734 189.409,467.363 190.064,469.649C192.394,477.789 183.798,464.598 181.443,463.683C179.523,462.936 179.967,462.521 180.466,460.466C183.164,449.361 189.233,452.069 195.044,461.778C199.864,469.832 191.419,474.051 193.023,470.386C196.352,462.78 190.053,459.684 185.662,456.14C185.271,456.254 184.881,456.368 184.49,456.482Z" style="fill:white;"/>
            <path d="M92.426,506.079C105.179,506.704 90.347,517.999 87.927,513.302C85.785,509.145 77.146,510.448 81.86,507.948C82.618,507.546 82.995,509.663 92.426,506.079ZM94.033,508.677C91.512,508.458 91.664,508.919 90.406,510.489L90.446,511.597C93.013,511.043 93.159,511.069 94.033,508.677Z" style="fill:white;"/>
            <path d="M68.5,433.449C65.917,433.249 58.738,434.659 51.954,427.214C51.212,426.401 52.047,424.391 54.278,425.941C64.41,432.981 66.119,427.832 77.547,432.437C88.827,436.982 69.218,433.573 68.5,433.449Z" style="fill:white;"/>
            <path d="M134.03,686.621C132.312,675.95 136.691,677.414 137.221,677.931C137.551,678.253 133.718,677.99 136.618,683.667C148.529,669.714 150.789,670.973 150.885,672.424C150.979,673.861 148.451,672.079 138.512,685.509C132.666,693.41 143.149,687.997 143.488,688.554C143.552,688.66 142.608,690.973 142.524,691.18C136.869,692.555 136.023,692.037 134.03,686.621Z" style="fill:white;"/>
            <path d="M588.49,483.7C603.256,487.486 603.856,507.994 599.091,497.733C589.067,476.144 580.794,492.161 578.46,489.528C577.845,488.834 576.232,485.649 588.49,483.7Z" style="fill:white;"/>
            <path d="M715.135,429.473C714.886,404.24 698.906,407.464 700.667,402.563C702.272,398.094 721.062,417.316 716.933,428.981C716.751,429.494 717.039,430.415 716.514,430.559C715.95,430.714 715.7,429.319 715.135,429.473Z" style="fill:white;"/>
            <path d="M306.407,767.092C291.119,766.998 307.95,755.536 311.559,759.444C314.403,762.524 307.048,766.726 306.407,767.092ZM304.484,764.547C311.281,763.799 309.141,761.112 308.706,761.065C305.37,760.707 305.06,761.219 304.484,764.547Z" style="fill:white;"/>
            <path d="M43.425,415.343C43.828,415.114 53.724,409.506 49.094,414.206C44.48,418.89 48.186,423.061 41.523,423.61C40.081,423.728 32.019,420.401 43.425,415.343ZM42.538,418.563C39.638,421.208 44.344,421.404 44.512,419.499C44.64,418.054 43.961,418.642 42.538,418.563Z" style="fill:white;"/>
            <path d="M631.462,538.99C640.104,543.364 622.072,555.668 624.134,544.421C624.834,540.602 630.753,539.163 631.462,538.99ZM627.66,543.608C626.653,550.067 631.145,543.874 630.315,542.673C629.422,541.383 629.332,542.448 627.66,543.608Z" style="fill:white;"/>
            <path d="M578.53,526.471C571.727,524.055 576.438,515.771 579.36,515.778C594.246,509.766 601.785,534.81 591.815,534.134C594.856,525.509 595.731,523.865 588.111,518.997C583.941,516.334 583.808,515.315 579.37,517.456C578.185,521.511 575.733,522.467 579.49,524.571C585.537,527.214 590.649,527.351 589.509,533.443C586.647,530.458 585.025,529.645 578.53,526.471Z" style="fill:white;"/>
            <path d="M422.448,587.501C422.489,588.092 422.522,627.404 419.892,594.453C418.971,582.92 422.473,581.739 414.734,572.368C413.633,571.035 415.041,569.371 416.375,570.657C422.895,576.94 421.815,580.404 422.448,587.501Z" style="fill:white;"/>
            <path d="M342.472,744.713C341.859,744.427 335.092,741.272 340.498,736.498C345.771,731.841 353.37,742.242 342.472,744.713ZM342.276,739.284C340.654,742.983 344.737,741.274 344.501,739.5C344.345,738.322 342.439,739.208 342.276,739.284Z" style="fill:white;"/>
            <path d="M176.165,529.48C174.556,537.343 171.874,534.927 171.619,534.452C171.367,533.98 174.067,529.924 170.518,530.785C167.597,531.494 167.785,531.583 166.105,532.074C164.527,533.067 163.11,531.858 163.651,533.618C163.889,534.391 165.209,534.477 165.447,535.25C164.762,535.287 158.02,536.185 159.641,533.579C164.45,525.849 174.864,529.077 176.165,529.48Z" style="fill:white;"/>
            <path d="M205.548,508.547C204.347,509.562 204.181,511.656 201.92,509.163C201.143,508.306 171.314,521.273 192.38,510.256C193.321,509.764 212.264,499.858 205.548,508.547Z" style="fill:white;"/>
            <path d="M522.863,560.045C522.464,559.594 518.666,555.3 519.296,553.415C521.637,546.417 532.624,562.291 522.863,560.045ZM523.547,556.596C522.478,554.327 522.677,554.351 522.478,554.327C519.519,553.976 523.378,556.487 523.547,556.596Z" style="fill:white;"/>
            <path d="M98.347,737.75C97.219,738.212 95.38,738.475 92.517,738.384C86.001,734.967 95.579,731.534 97.581,732.344C98.003,732.515 101.61,735.795 98.932,737.456C98.653,737.019 97.845,736.196 96.239,734.808C95.85,734.472 94.022,735.357 93.844,735.443C93.937,735.502 96.948,737.276 98.347,737.75Z" style="fill:white;"/>
            <path d="M474.444,558.95C473.879,558.709 468.685,556.502 468.14,554.573C466.186,547.659 483.991,556.62 474.444,558.95Z" style="fill:white;"/>
            <path d="M253.827,754.455C253.007,761.677 243.042,755.366 248.805,750.915C251.649,748.719 253.652,753.995 253.827,754.455ZM251.212,755.375C251.152,752.183 249.82,753.521 249.704,753.662C248.676,754.917 249.751,754.634 251.212,755.375Z" style="fill:white;"/>
            <path d="M252.454,689.529C244.454,681.408 244.225,681.396 244.307,680.422C244.865,673.859 265.863,702.98 252.454,689.529Z" style="fill:white;"/>
            <path d="M493.533,574.626C494.032,574.596 498.134,574.348 499.028,577.604C500.481,582.897 487.089,579.103 493.533,574.626Z" style="fill:white;"/>
            <path d="M137.395,765.866C137.062,765.522 133.472,761.812 139.479,760.263C141.408,759.765 146.78,765.032 137.395,765.866Z" style="fill:white;"/>
            <path d="M149.282,687.415C144.418,694.899 146.833,685.86 146.91,685.636C147.074,685.159 144.784,674.696 149.321,681.609C151.062,684.262 150.051,684.378 149.282,687.415Z" style="fill:white;"/>
            <path d="M225.228,754.512C222.965,760.737 217.106,756.732 218.998,754.939C223.202,750.956 224.981,754.078 225.228,754.512Z" style="fill:white;"/>
            <path d="M211.654,483.933C214.233,483.818 215.5,482.786 215.438,485.496C215.432,485.774 215.38,488.053 213.455,488.36C209.351,489.014 208.376,486.52 211.654,483.933Z" style="fill:white;"/>
            <path d="M205.819,744.116C204.033,741.955 203.175,741.197 205.684,739.944C209.564,738.007 210.639,747.494 205.819,744.116Z" style="fill:white;"/>
            <path d="M137.951,733.525C140.33,727.506 143.15,733.432 142.053,735.207C139.573,739.221 138.048,733.867 137.951,733.525Z" style="fill:white;"/>
            <path d="M562.874,562.93C559.368,564.737 556.21,561.958 561.195,557.122C566.256,554.761 566.293,559.012 562.874,562.93Z" style="fill:white;"/>
            <path d="M385.848,753.616C382.054,757.963 379.785,750.694 383.498,750.47C385.985,750.321 385.616,751.212 385.848,753.616Z" style="fill:white;"/>
            <path d="M634.411,569.454C630.726,574.257 629.578,567.155 632.461,566.381C634.928,565.719 634.771,566.856 634.411,569.454Z" style="fill:white;"/>
            <path d="M123.542,697.484C123.866,695.544 123.649,694.939 125.554,695.274C127.629,695.638 127.118,701.269 123.542,697.484Z" style="fill:white;"/>
            <path d="M655.794,579.536C657.552,578.364 657.387,578.329 657.552,578.364C659.095,578.681 657.281,582.993 655.794,579.536Z" style="fill:white;"/>
        </g>
    </g>
</svg>
