<?xml version="1.0" encoding="UTF-8" standalone="no"?>
<!DOCTYPE svg PUBLIC "-//W3C//DTD SVG 1.1//EN" "http://www.w3.org/Graphics/SVG/1.1/DTD/svg11.dtd">
<svg width="868" height="1116" viewBox="0 0 868 1116" version="1.1" xmlns="http://www.w3.org/2000/svg" xmlns:xlink="http://www.w3.org/1999/xlink" xml:space="preserve" xmlns:serif="http://www.serif.com/" style="fill-rule:evenodd;clip-rule:evenodd;stroke-linejoin:round;stroke-miterlimit:2;">
    <g transform="matrix(1,0,0,1,-2744,0)">
        <g id="アートボード2" transform="matrix(0.487367,0,0,1,1851.631668,0)">
            <rect x="1831" y="0" width="1781" height="1116" style="fill:none;"/>
            <g id="早慶戦-6.png" transform="matrix(2.051843,0,0,1,1869.985023,93)">
                <g transform="matrix(1,0,0,1,-932,-93)">
                    <path d="M1069.381,413.395C1051.859,453.808 1048.522,452.225 1033.465,493.494C1012.952,569.322 1017.151,580.044 1011.487,589.491C1005.465,599.534 1010.831,585.671 1015.814,559.549C1032.469,472.239 1039.554,474.433 1060.027,428.295C1074.029,396.739 1074.591,397.155 1092.474,367.484C1110.502,337.574 1114.316,340.184 1121.541,326.505C1119.43,321.264 1117.824,323.123 1114.4,321.629C1113.772,321.356 1110.64,317.71 1114.512,319.366C1117.996,320.857 1119.979,318.008 1123.558,324.683C1151.393,290.903 1203.246,253.014 1220.386,244.237C1224.408,242.177 1226.4,246.637 1223.517,246.342C1214.05,245.373 1133.839,310.377 1125.407,327.47C1133.442,334.643 1136.593,335.698 1137.624,336.249C1165.529,351.157 1163.398,356.38 1192.564,362.256C1214.559,366.687 1184.543,366.639 1161.674,353.2C1134.641,337.315 1129.833,333.677 1127.244,331.718C1125.505,330.214 1125.814,330.178 1124.372,328.234C1107.29,347.22 1083.263,384.235 1070.294,411.466C1116.105,443.2 1117.567,440.619 1160.403,454.732C1180.487,461.349 1121.95,453.698 1076.063,417.966C1075.18,417.278 1069.919,413.756 1069.381,413.395Z" style="fill:white;"/>
                </g>
                <path d="M201.833,622.811C203.548,615.429 204.305,614.966 200.133,608.747C195.092,601.232 195.034,601.446 189.55,594.316C185.053,599.647 183.673,649.957 180.321,639.617C178.571,634.22 186.225,596.231 186.977,592.5C186.481,589.542 184.967,590.392 164.032,562.854C162.269,560.536 159.16,557.154 156.714,554.408C153.42,552.889 149.728,551.181 145.606,549.268C121.131,537.907 96.603,523.315 64.397,508.661C62.221,507.671 65.216,506.469 65.704,506.198C56.027,502.718 54.931,498.983 57.519,499.204C58.839,499.316 65.433,503.864 117.521,527.453C188.235,559.477 188.05,560.05 192.577,560.822L193.58,561.426C195.616,562.782 230.219,579.127 230.627,577.611C232.533,570.541 224.338,569.685 239.713,486.526C243.827,464.272 243.299,464.301 249.877,442.518C243.964,435.911 220.469,430.681 217.781,430.083C196.354,425.313 222.068,428.6 222.455,428.659C238.759,432.918 247.004,438.87 251.083,439.278C257.585,418.578 254.132,418.066 257.664,396.528C258.652,390.505 264.903,352.397 271.966,321.585C272.398,318.756 272.569,318.656 270.726,316.591C273.599,310.621 274.575,308.592 287.609,235.52C294.512,196.823 294.199,196.907 302.102,158.423C302.335,157.292 313.392,99.077 308.736,137.52C306.711,154.242 276.485,315.998 277.077,320.549C284.352,376.433 282.179,443.09 319.903,537.325C325.914,552.342 333.356,565.996 336.931,573.279C336.497,573.006 335.852,573.83 335.417,573.557C330.014,570.164 313.24,525.735 311.621,521.447C290.945,466.685 296.178,463.699 292.243,450.89C286.825,433.249 279.897,373.541 279.443,371.487C277.541,349.2 277.351,349.386 275.419,327.255C272.329,346.772 272.354,346.759 272.074,348.453C270.982,355.072 270.944,355.022 270.893,355.599C269.872,361.58 269.88,361.52 269.874,361.582L268.836,367.569C268.682,368.449 267.788,373.557 266.878,378.562C264.873,390.164 264.794,390.03 262.602,401.513C262.893,401.469 263.324,403.278 264.264,401.262C270.613,387.639 271.42,388.161 277.374,374.46C279.475,377.932 277.526,378.154 263.724,406.575C261.978,411.02 261.943,410.875 260.69,415.58C256.364,430.126 256.414,430.117 256.026,431.377C244.765,467.93 245.935,468.089 238.357,505.477C231.06,541.478 232.184,585.645 234.478,584.222C236.549,582.938 251.235,573.83 262.437,572.138C277.699,569.832 271.987,593.702 270.455,587.528C268.39,579.212 242.324,595.324 235.757,603.668C234.34,605.468 238.942,634.75 240.748,641.092C241.219,642.744 241.751,641.06 256.835,626.855C262.118,621.88 287.21,598.249 336.508,583.5C333.471,579.792 321.174,576.344 317.217,574.963C302.649,569.882 320.207,573.517 320.476,573.601C327.29,575.737 326.854,576.59 333.576,578.89C336.055,579.738 330.117,572.332 330.644,571.582C331.115,570.913 331.783,570.932 337.56,579.109L338.903,574.7C366.536,453.795 406.581,408.33 404.117,401.595C403.267,399.271 406.93,400.335 409.011,397.176C436.077,356.098 442.892,351.553 498.123,309.068C499.985,307.636 509.852,300.045 522.497,292.689L523.122,293.651C519.715,301.209 448.394,336.107 413.175,395.468C453.364,418.376 453.45,418.585 498.456,429.703C551.661,442.846 448.739,427.7 412.418,396.373C406.673,404.157 412.307,404.205 419.835,410.077C425.162,414.234 456.246,431.796 442.456,428.755C430.851,426.196 408.128,402.883 406.152,406.083C388.356,434.893 374.215,468.474 363.607,498.556C365.398,499.236 368.654,501.01 368.772,501.074C386.311,510.631 436.009,530.182 476.608,528.62C489.251,503.452 504.329,466.085 511.15,444.377C511.152,444.98 512.542,444.927 512.543,445.53C512.555,450.223 496.21,492.44 479.355,528.52C479.761,528.423 483.692,527.488 484.489,527.558C486.943,527.774 485.138,530.123 478.455,530.452C476.573,533.998 476.821,533.931 458.916,576.674C457.569,579.888 456.002,581.716 459.513,581.589C474.263,581.054 501.006,586.679 501.171,582.466C501.818,566.018 502.395,548.8 511.53,466.505C514.376,442.684 516.025,442.53 513.799,437.572C516.164,426.672 525.417,274.192 527.64,272.83C530.665,270.977 528.884,275.014 520.885,387.551C518.118,426.483 517.176,426.351 519.078,445.512C519.673,451.507 519.615,500.191 527.291,518.757L529.141,517.237C550.853,423.306 567.942,391.648 601.092,340.241C601.982,338.86 601.694,338.818 602.223,337.565C601.917,337.106 595.688,327.763 600.254,330.945C602.297,332.368 600.611,334.685 604.39,335.293C611.526,324.634 612.195,325.256 618.455,317.461C642.295,287.776 699.751,252.065 707.035,249.005C711.666,245.202 711.266,233.186 711.818,230.649C713.99,220.667 715.137,234.036 709.645,261.531C700.575,306.934 701.197,306.894 692.283,352.48C695.611,354.255 694.346,355.226 697.307,371.538C700.408,388.621 700.106,388.722 701.012,389.917C702.58,391.984 702.993,391.921 702.294,394.433C700.591,400.559 728.457,501.405 731.008,510.635C751.405,584.453 766.22,597.665 763.352,598.008C755.311,598.971 729.23,516.547 718.512,474.497C717.059,468.798 701.047,405.981 700.852,403.136C700.422,396.843 692.386,424.688 691.828,426.622C667.111,512.267 662.994,550.694 659.902,560.627C659.517,559.193 658.301,559.586 658.803,556.533C668.747,496.029 685.867,437.755 688.853,427.593C696.029,403.164 700.672,403.657 697.79,388.451C692.352,359.765 693.887,357.933 691.467,356.49C688.952,377.237 668.232,484.606 669.88,488.387C669.962,488.575 669.799,488.559 668.792,490.707C668.529,491.388 639.321,655.509 640.426,657.55C640.481,657.651 640.426,657.55 641.528,658.466C644.871,661.694 644.815,661.568 647.802,665.212C652.456,670.89 649.687,638.483 650.757,623.523C652.932,593.074 656.647,571.749 657.424,567.285C657.961,563.338 656.707,562.232 659.596,561.496C659.268,565.151 659.434,565.114 658.925,566.78C657.098,584.203 656.392,583.963 654.632,601.512C652.63,621.478 652.061,655.099 652.566,660.359C652.6,660.71 653.513,660.399 653.547,660.75C655.262,659.325 655.244,659.557 656.921,657.948C665.166,650.04 665.511,650.697 674.855,643.993C726.312,607.073 752.697,600.641 755.934,598.605C753.125,596.654 752.974,597.192 749.658,596.078C719.506,585.949 719.179,587.254 716.604,586.264C704.066,581.443 719.157,584.763 719.4,584.829C735.165,589.095 734.893,589.658 750.519,594.325C753.245,595.139 748.088,590.479 747.795,590.214C725.272,569.859 757.4,594.006 758.705,598.408C758.424,600.375 758.561,600.294 758.424,600.375C739.247,611.706 715.769,633.051 683.801,654.918C684.098,654.465 683.127,653.791 683.424,653.339C684.086,652.328 685.355,651.885 686.29,651.12C711.819,630.244 735.963,613.487 740.414,610.397C775.971,585.719 678.123,639.168 682.832,643.085C689.356,648.512 680.349,649.606 681.247,656.359C675.371,667.508 673.636,666.46 673.562,667.543C672.478,683.383 661.149,686.339 656.421,693.649C667.332,693.319 669.249,689.678 669.781,688.669C671.612,685.192 673.9,688.051 675.499,687.498C682.54,685.061 677.385,690.527 676.344,696.866C686.593,696.668 686.319,695.497 696.525,693.834C697.974,693.598 699.14,695.628 695.549,696.607C693.461,697.176 693.647,697.139 691.682,697.688C692.788,698.446 696.774,701.179 708.437,697.256C715.806,694.778 706.624,704.286 689.462,699.895C686.739,699.312 686.761,699.258 686.521,699.266C673.468,699.658 673.561,699.098 672.486,699.423C659.381,703.389 657.15,708.344 655.499,708.481C654.222,708.586 652.574,704.38 668.5,699.142C675.449,696.856 635.517,690.953 623.409,705.481C623.39,706.411 624.499,705.587 624.481,706.5C624.479,706.604 624.473,706.867 623.375,707.173C613.72,709.861 621.337,700.012 637.139,695.223C634.266,693.32 634.443,693.336 631.418,691.7L629.576,692.461C630.858,693.955 632.331,693.727 631.092,695.209C625.142,702.324 612.504,688.287 599.576,697.623C598.055,697.497 597.027,697.574 598.066,696.326C608.16,684.203 636.562,702.746 626.063,691.575C625.683,690.358 624.156,685.463 610.594,687.762C603.58,688.951 610.335,685.585 610.509,685.552C623.516,683.144 636.295,692.483 637.623,692.84C638.165,692.986 638.069,691.331 638.612,691.477C638.302,683.642 643.019,696.639 647.567,693.636C648.15,693.251 647.297,691.949 647.88,691.564C648.874,690.502 657.547,681.233 656.447,675.52C656.351,675.019 653.588,672.644 652.305,680.377C652.334,680.923 653.437,680.988 653.467,681.534C653.48,681.771 652.316,684.055 650.833,680.167C648.671,676.776 649.498,675.192 645.51,675.32C633.47,675.706 631.328,677.542 630.391,678.345C629.321,679.261 628.21,677.194 626.53,677.2C612.28,677.254 607.251,681.514 606.633,681.209C599.071,677.481 628.566,674.621 628.84,673.619C629.851,669.918 630.765,669.682 628.485,666.512C622.426,658.589 622.447,658.81 618.603,653.354C616.332,655.444 616.984,656.872 614.378,665.577C623.563,670.459 623.199,671.854 622.425,672.158C622.35,672.188 604.53,663.596 603.701,663.14C589.51,655.33 545.362,621.804 582.815,647.024C604,661.289 609.021,663.545 611.477,664.648C615.818,658.912 613.901,658.164 616.662,651.49C615.182,646.848 604.109,638.39 599.555,630.47C591.5,616.458 603.86,631.511 604.101,631.804C615.379,645.538 615.399,645.492 616.366,646.695C619.669,643.573 620.585,619.641 620.52,617.473C600.923,613.813 601.212,613.088 582.577,608.206C582.275,608.127 577.05,607.245 576.569,607.164C563.921,605.03 564.327,604.169 552.351,599.936C550.462,603.489 552.325,603.602 564.61,631.455C574.76,654.467 594.439,694.172 597.121,699.583C612.889,728.782 620.092,737.34 622.564,740.277C622.767,740.223 630.109,738.405 623.973,742.494C624.159,742.759 634.665,757.672 624.489,746.512C623.075,744.961 623.228,744.991 621.415,744.233C619.275,745.73 619.505,745.764 617.705,747.759C616.223,749.271 616.36,749.251 614.757,750.767C543.272,818.377 543.887,818.916 537.374,824.452C538.316,831.628 538.606,831.724 538.161,832.156C536.429,833.838 535.128,827.525 534.536,827.41C533.217,827.152 514.73,845.357 518.501,844.515C524.038,843.278 523.882,845.04 532.605,846.243C540.045,847.51 539.845,847.715 540.482,847.802C571.542,852.028 592.129,835.643 579.216,845.109C567.34,853.815 535.361,849.174 531.58,848.625C529.483,850.294 528.101,848.766 527.429,851.447C526.122,856.652 525.05,847.139 524.254,846.939C520.503,845.999 521.358,851.91 518.185,849.643L518.517,847.467C518.372,847.359 518.517,847.467 516.54,848.58C515.673,849.146 506.528,855.117 503.631,849.51L504.339,847.689C502.587,847.758 501.024,847.821 483.642,854.868C469.855,860.457 487.87,849.071 504.93,844.952C504.252,844.739 504.21,843.554 503.531,843.34C502.262,842.94 500.859,843.428 499.539,843.255L494.621,842.575L495.572,840.458C501.209,841.321 501.054,841.295 506.699,841.693C513.916,830.658 513.727,814.85 513.698,812.445C514.12,808.928 514.132,808.963 513.03,805.639C511.241,800.243 509.752,801.028 504.274,802.294L503.688,802.675C505.553,804.167 505.393,804.089 507.395,805.641C510.196,807.812 511.908,807.596 510.363,810.693C506.081,807.309 505.554,808.052 502.445,803.745C499.948,803.504 500.797,806.199 498.397,805.824C494.16,805.162 494.326,806.243 454.419,820.274C450.858,821.526 421.003,832.022 407.625,826.326C407.15,826.124 406.805,824.129 409.489,824.654C429.555,828.582 443.184,821.342 452.528,817.559C456.086,816.119 451.765,810.839 450.891,809.21C445.068,806.395 437.221,796.792 436.679,799.571C433.656,815.094 434.279,818.721 431.902,816.142C430.898,815.052 438.224,799.575 432.814,795.12C379.336,751.074 347.913,721.591 322.852,708.085C307.049,699.568 332.529,707.091 358.47,730.534C360.694,732.544 419.533,781.636 424.85,786.071C429.052,789.577 429.02,789.416 435.483,794.397C435.762,785.269 438.547,755.675 439.268,753.606C437.909,751.331 400.609,718.918 416.336,729.784C427.136,737.246 427.998,735.73 438.263,743.94C439.324,741.71 441.019,742.174 440.332,734.764C399.294,721.592 399.361,721.669 357.561,711.013C358.013,711.29 356.194,712.035 356.645,712.311C359.142,713.841 359.868,711.685 391.44,723.67C407.812,729.885 420.66,731.706 410.499,731.492C402.365,731.321 351.575,712.278 346.529,710.386C319.816,702.817 319.615,702.931 319.512,702.495C319.413,702.077 319.379,701.936 324.534,700.591C328.22,699.628 431.277,727.407 440.518,729.897C442.994,723.481 440.269,723.056 450.686,644.537C450.875,643.114 453.04,626.795 452.268,626.664C449.022,626.111 441.503,627.038 415.488,621.641C374.452,613.127 354.573,600.908 336.696,597.625C334.347,607.906 332.275,619.313 328.148,657.46C324.279,693.236 328.306,693.981 326.21,696.277C322.576,700.258 324.075,675.298 324.185,673.47L324.43,670.457C327.604,643.3 327.827,629.644 336.471,586.512C333.225,586.28 296.462,599.599 275.8,613.913C272.771,616.011 276.099,616.828 275.477,620.498C273.871,629.981 277.606,630.135 275.309,639.448C275.965,639.588 275.799,640.96 276.454,641.1C279.226,641.693 314.148,607.076 315.69,605.71C322.37,599.795 322.639,605.167 322.403,605.211C317.618,606.102 317.678,606.511 308.518,615.518C278.884,644.655 277.282,643.664 274.045,642.383C272.672,646.011 266.661,653.072 264.653,653.84C254.369,657.773 267.517,651.189 272.083,641.239C275.835,633.062 271.925,627.935 271.875,627.468C271.351,622.552 269.487,624.08 264.704,622.915C258.559,628.259 242.532,643.454 241.383,645.457C238.658,647.724 238.866,648.332 240.88,651.282L241.31,652.47C241.32,663.588 239.282,662.985 233.851,672.475C229.336,680.366 274.349,651.1 241.31,652.47C241.988,651.477 241.561,651.236 242.606,650.573C243.187,650.204 242.995,650.143 243.557,649.787C244.725,649.818 258.954,650.203 255.318,658.446C252.294,665.301 253.275,665.893 252.641,665.972C249.65,666.345 249.771,666.443 247.412,668.405C238.643,675.7 255.565,667.203 261.423,670.603C271.494,676.448 254.962,667.534 238.696,676.867C236.773,678.436 236.806,677.136 235.52,675.843C231.765,676.198 231.785,676.169 231.464,676.227C213.572,679.432 203.809,671.653 184.491,674.249C169.306,676.29 156.135,693.337 164.988,680.777C175.2,666.29 207.857,672.965 211.548,673.72C222.475,675.953 185.672,657.871 176.767,662.851C172.715,661.385 172.789,660.529 168.772,661.719C164.485,662.989 171.616,661.609 173.659,664.794C152.481,667.769 139.898,658.998 124.411,675.422C120.842,679.207 121.3,667.382 143.546,662.842C157.891,659.916 167.099,668.342 164.119,656.577C162.732,651.1 166.897,650.661 178.465,648.315C192.518,645.465 210.749,644.787 210.622,643.512C209.854,635.781 209.205,635.85 210.858,626.546C211.248,624.349 210.83,624.538 209.418,622.77C205.554,624.501 207.357,642.696 201.514,642.344C197.269,642.088 200.973,625.572 201.833,622.811C205.422,629.788 201.237,630.035 201.438,637.516C201.778,650.19 205.045,622.703 206.504,621.505C209.229,619.269 205.674,616.967 204.787,618.734C204.606,619.094 203.736,620.829 201.833,622.811ZM627.467,448.408C617.86,448.271 568.281,424.371 563.643,414.369C562.009,410.846 544.496,459.347 539.728,483.523C539.674,483.793 570.86,519.172 631.534,532.231C635.257,533.033 637.37,531.286 640.898,485.558C641.212,481.495 644.341,481.629 644.244,482.453C640.668,512.578 637.934,526.633 637.193,530.442C636.499,534.009 638.045,533.439 641.285,534.821C641.944,535.102 641.737,537.45 638.598,536.191C634.908,534.712 632.475,540.545 638.519,541.251C646.056,542.133 640.128,551.528 640.561,556.472C641.06,562.173 637.022,557.576 631.667,559.665C622.102,609.562 623.949,609.834 622.886,614.117C623.647,614.534 624.614,615.063 633.401,616.784C635.537,615.613 635.396,615.086 636.401,615.703C637.079,616.121 635.172,618.496 635.006,618.702C635.019,619.035 636.948,630.461 639.103,619.414C645.88,584.677 660.194,508.11 662.005,498.427C662.618,494.929 663.546,494.92 662.076,491.807C651.728,483.16 643.076,479.935 642.809,479.471C641.896,477.883 645.182,475.65 663.131,490.015C667.157,482.226 664.718,481.552 684.193,382.459C684.966,378.526 683.279,377.491 683.236,377.411C686.528,370.583 687.978,360.64 688.729,356.537C702.57,280.895 702.766,281.003 708.404,251.513C706.522,251.496 703.843,251.472 687.854,262.949C647.018,292.26 642.925,292.455 614.459,325.477C616.389,334.911 641.912,350.889 651.642,354.143C652.423,354.404 704.408,372.302 660.526,359.338C633.467,351.343 621.359,338.187 614.724,331.306C613.318,329.847 614.133,328.489 611.663,328.674C596.629,347.81 562.024,409.526 564.532,412.443C580.095,430.548 621.919,444.904 627.334,446.763C629.917,447.814 629.918,448.353 629.918,448.607C629.92,450.342 629.157,449.145 627.467,448.408ZM223.572,609.749C218.455,614.571 212.997,619.556 212.777,619.752C212.545,626.533 220.478,634.081 221.541,634.549L223.133,627.395C224.895,617.669 227.168,612.211 223.572,609.749ZM222.132,608.582C222.492,608.974 222.915,609.331 223.408,609.642C223.464,609.677 223.519,609.713 223.572,609.749C224.186,609.172 224.794,608.596 225.388,608.031C225.155,606.347 226.578,604.28 227.053,606.44C227.913,605.613 228.716,604.831 229.428,604.126C229.257,604.782 229.069,605.554 228.859,606.507L230.143,608.305L231.283,605.409C231.877,602.922 232.116,602.174 232.336,601.036C232.517,600.787 232.548,600.667 232.399,600.702C232.49,600.189 232.584,599.574 232.705,598.702C232.646,597.068 232.433,597.214 231.194,596.308C230.76,599.584 230.408,600.685 229.916,602.372C228.266,603.619 225.746,605.623 222.132,608.582ZM222.132,608.582C218.426,604.535 221.372,596.643 221.731,595.682C221.805,595.692 227.054,597.157 227.517,597.286C229.138,597.738 229.548,594.637 226.584,594.142C225.509,593.963 224.338,594.283 223.325,593.883C222.848,593.696 223.031,592.742 222.555,592.554C227.216,590.808 229.673,594.514 230.785,589.58C231.617,585.89 229.53,586.687 227.104,583.81C226.349,582.914 196.964,568.545 192.459,567.082C192.899,576.478 188.241,589.225 189.86,591.303C196.693,600.074 196.757,599.9 202.972,609.175C207.901,616.531 210.934,607.613 216.512,606.918C227.766,605.517 201.869,612.639 209.503,618.487C210.119,618.96 210.149,618.482 218.533,611.546C219.837,610.466 221.035,609.48 222.132,608.582ZM532.055,810.332C534.553,802.109 531.358,801.666 533.562,796.528C533.843,795.872 536.559,789.541 534.343,787.64C531.408,785.124 545.182,775.945 546.887,783.344C548.937,792.238 546.113,792.35 546.8,794.426C554.353,817.247 531.387,815.715 536.591,822.358C539.233,820.069 542.14,817.55 568.077,792.052C583.881,776.517 614.873,747.896 615.235,747.378C618.201,743.127 546.803,759.174 517.862,794.801C514.499,798.94 520.68,794.189 525.304,796.783C531.329,800.163 523.488,798.185 516.633,798.878C511.788,799.369 516.02,806.106 516.18,807.536C518.211,825.657 512.599,833.533 509.571,843.505C508.962,845.51 512.964,847.012 530.055,827.176C534.388,822.147 532.621,821.525 532.29,820.569C528.388,809.285 512.3,800.827 518.466,802.016C524.677,803.213 528.115,814.273 532.055,810.332ZM660.618,657.393C660.393,657.573 655.707,661.324 659.724,660.877C660.474,660.793 660.181,660.477 660.618,657.393ZM222.647,644.429C225.161,644.744 225.127,644.51 225.098,644.316C225.035,643.886 221.639,637.707 222.647,644.429ZM639.569,660.631C636.1,673.21 637.397,673.761 638.445,673.704C648.614,673.15 648.823,672.271 648.564,671.484C648.073,669.993 643.963,663.04 639.569,660.631ZM629.561,558.449C624.13,556.234 624.246,556.137 618.547,555.098C616.207,554.671 618.278,538.702 620.557,539.158C621.551,539.357 632.939,541.637 633.225,539.382C633.426,537.796 634.534,536.167 634.02,534.653C633.82,534.065 619.799,534.035 598.576,524.325C558.384,505.935 556.141,501.268 540.283,487.835C537.109,485.147 534.033,518.015 528.054,524.538C533.391,545.813 537.305,564.237 547.954,592.318C550.197,598.231 550.414,600.554 556.332,598.123C557.874,597.489 557.875,596.48 567.568,599.324C615.958,613.521 616.381,611.926 620.502,613.415C623.866,591.046 625.298,580.225 629.561,558.449ZM467.5,740.217C467.594,739.382 468.49,740.296 468.582,739.479C468.592,739.387 468.619,739.143 467.662,738.775C466.562,738.351 467.029,739.042 467.5,740.217ZM239.353,650.872C235.121,650.042 234.146,651.062 235.066,655.385C235.19,655.969 231.384,654.106 231.746,657.513C232.064,660.511 228.807,658.372 229.803,655.586C230.958,652.357 230.52,652.306 228.793,649.278C224.366,641.518 176.271,651.042 171.461,652.278C166.933,653.441 166.192,654.041 167.123,658.673C167.498,660.543 174.279,658.014 186.43,659.894C211.646,663.795 234.55,694.463 239.353,650.872ZM524.157,523.418C526.419,517.048 522.412,517.227 519.764,495.479C516.598,469.483 518.494,461.729 517.787,457.258C517.693,456.665 516.272,457.04 516.179,456.447C515.386,500.19 515.086,500.046 510.854,543.55C509.088,561.707 507.172,562.013 509.401,565.584C509.448,565.456 519.809,530.406 524.157,523.418ZM232.217,610.359C228.073,637.881 220.609,644.583 235.426,647.034C239.828,647.762 237.991,639.135 237.842,638.437C233.63,618.657 234.523,618.66 234.001,611.582C233.854,609.588 232.286,610.407 232.217,610.359ZM676.313,648.545C679.96,649.359 681.588,651.233 682.01,647.457C682.061,646.996 681.449,644.129 676.313,648.545ZM542.504,785.101C548.601,783.68 542.707,782.474 542.5,782.497C542.25,782.526 540.722,782.701 539.541,783.543C537.415,785.059 539.913,784.706 542.504,785.101ZM634.7,543.938C632.976,552.498 627.912,557.446 636.558,556.839C639.078,556.663 640.767,544.258 638.43,543.887C638.135,543.84 638.154,543.891 634.7,543.938ZM632.254,543.827C621.051,540.88 620.688,542.585 620.61,543.514C620.004,550.708 619.123,552.371 621.41,552.886C622.169,553.057 630.176,555.951 630.4,555.293C630.699,554.413 630.35,554.491 632.254,543.827ZM205.376,570.662C217.307,576.44 232.304,584.501 230.094,580.576C229.075,578.766 228.436,579.854 206.46,569.845C202.982,568.037 202.952,568.421 199.244,567.522L205.376,570.662ZM339.748,580.501C341.404,584.124 346.484,585.525 342.482,585.326C340.974,585.251 337.392,583.777 337.437,595.517C343.239,596.033 413.728,624.635 451.508,624.528C453.945,624.521 453.198,611.055 454.453,590.514C454.382,588.762 454.558,588.835 453.614,587.5C454.692,582.725 455.422,579.492 475.754,530.458C452.118,535.026 380.052,512.622 365.624,501.372C364.557,500.54 363.801,499.909 363.296,499.441C349.419,538.959 341.664,572.271 339.748,580.501ZM475.592,765.389C479.264,769.151 485.864,772.542 480.468,771.066C475.95,769.83 478.044,772.919 477.173,777.48C476.742,779.736 477.727,779.493 497.635,797.632C498.082,781.505 498.237,781.615 498.596,765.5C498.622,764.334 498.909,751.466 497.294,750.978C484.209,747.03 484.314,747.028 471.369,742.853L468.345,741.948C455.382,738.304 455.601,738.103 442.43,735.257C442.506,741.634 442.574,741.647 440.551,745.448C444.726,750.081 448.827,752.531 465.482,767.551C466.048,768.327 475.003,780.595 475.873,773.559C476.215,770.794 477.415,769.651 474.575,769.182C470.357,768.485 469.752,769.654 467.054,766.302C469.855,763.489 470.432,763.122 474.578,764.36L475.592,765.389ZM511.829,849.125C514.246,847.578 514.264,847.63 514.439,847.454C515.432,846.459 510.746,844.591 511.829,849.125ZM668.724,671.431C665.762,674.896 658.936,671.414 658.63,673.571C658.034,677.784 661.908,681.186 650.718,691.721C651.051,692.467 649.274,693.16 649.607,693.906C649.742,694.209 649.879,693.802 653.476,692.426C667.552,681.891 667.918,676.633 670.654,672.594C671.466,668.721 671.67,668.727 671.536,668.412C670.914,666.954 662.219,668.405 668.724,671.431ZM659.573,668.346C657.158,670.46 657.993,670.834 658.22,670.861C660.405,671.128 660.664,670.243 659.573,668.346ZM632.88,653.757C636.427,633.23 638.34,626.038 637.376,625.649C633.685,624.161 632.755,624.464 632.719,620.483C632.681,616.195 612.055,618.689 628.957,649.26C630.861,652.705 631.013,652.425 632.88,653.757ZM219.525,636.484C214.774,630.122 214.81,630.16 214.394,629.614C212.114,626.614 211.473,635.434 212.349,640.537C213.636,648.032 223.536,644.46 219.525,636.484ZM658.06,666.018C661.854,659.713 652.583,662.257 652.233,667.479C651.585,677.159 656.602,666.948 658.06,666.018ZM442.545,750.418C442.218,750.664 441.674,749.897 441.347,750.144C439.295,751.691 461.523,772.171 465.543,774.524C466.347,766.007 462.379,767.788 456.079,761.953C455.463,761.383 443.63,751.338 442.545,750.418ZM440.062,748.748C434.046,741.659 419.525,733.138 428.759,741.349C429.47,741.981 429.503,741.888 437.738,749.147C439.834,750.994 440.018,748.775 440.062,748.748ZM226.638,601.56C226.35,599.496 226.457,599.176 224.45,598.801C222.321,598.403 222.775,606.773 226.638,601.56ZM262.604,382.502C260.358,395.065 260.319,394.917 258.582,407.474L260.181,407.331C260.543,397.276 263.311,393.444 263.522,383.007L262.604,382.502ZM449.832,804.426C449.606,803.407 446.807,799.808 450.74,792.619C451.202,791.774 454.307,786.098 458.421,783.345C465.39,778.68 457.185,786.77 453.416,792.441C447.538,801.284 455.109,812.221 456.549,813.11C457.244,812.314 458.262,812.59 457.662,809.472C455.674,799.139 453.634,797.636 461.656,790.732C469.197,784.242 453.617,802.351 459.533,803.465C464.074,804.32 460.961,807.062 464.138,810.788C463.276,811.266 463.578,811.666 462.488,811.703C460.962,811.755 461.307,812.356 459.946,813.109C462.62,814.684 462.665,813.556 465.471,812.403C469.58,810.914 469.389,810.827 473.653,809.83L474.629,809.765C484.386,807.155 484.208,807.167 493.569,803.724C496.717,802.566 498.258,802.907 497.268,799.615C494.654,797.686 494.779,797.75 492.355,795.727C491.235,796.178 488.5,797.28 479.108,788.473C479.196,790.061 480.132,806.937 474.325,807.775L473.589,807.456C473.953,803.548 480.741,795.819 475.57,785.455C475.841,783.165 475.305,782.815 476.521,782.555C476.973,782.458 476.957,782.674 479.485,787.509C479.744,787.619 480.052,787.575 480.311,787.684C481.304,788.104 488.949,794.192 489.507,794.371C489.886,794.493 490.025,793.461 490.404,793.583C477.06,781.133 477.252,778.772 474.598,780.647C473.14,781.677 473.185,781.426 471.578,782.312C470.301,781.537 470.432,781.58 469.502,780.5C472.023,778.686 474.049,778.466 471.634,776.362C470.057,774.988 468.057,772.131 467.902,776.47L467.529,779.419L466.48,778.533L465.164,776.656C464.381,776.225 463.822,776.869 441.55,755.23C439.528,757.705 438.533,789.954 436.933,795.216C439.175,797.433 438.954,797.42 441.589,799.389C446.482,803.045 445.601,805.808 449.832,804.426ZM266.931,620.718C267.288,620.961 270.476,623.134 272.297,621.294C272.6,620.987 273.001,615.495 266.931,620.718ZM227.437,623.471C229.421,613.934 229.965,614.04 229.563,610.468L228.619,610.982L227.905,611.604C226.964,617.365 226.997,617.185 226.082,622.944L225.234,626.46C225.334,627.017 226.457,626.967 226.557,627.524L227.437,623.471ZM538.642,814.642C539.048,814.197 547.529,804.909 542.454,808.139C533.106,814.088 532.551,813.536 532.421,814.477C532.352,814.97 532.132,820.151 538.642,814.642ZM161.791,556.744C167.323,563.299 175.864,575.646 184.469,584.527C193.857,594.218 186.265,579.066 191.402,566.586C183.7,561.184 183.351,561.782 85.619,515.215C85.983,515.476 84.875,516.243 85.239,516.504C93.453,522.408 123.317,536.476 126.699,538.069C127.266,538.336 140.9,544.974 154.261,551.572C152.336,549.209 152.469,548.696 158.055,552.903C158.467,553.214 158.927,553.627 159.429,554.129C178.608,563.641 193.463,571.272 161.791,556.744ZM234.124,649.536C233.917,649.374 230.366,646.591 230.942,648.722C231.542,650.94 232.286,650.927 234.124,649.536ZM534.591,810.087C540.212,806.966 544.261,806.886 542.12,801.569C540.31,797.074 545.958,803.31 546.372,802.455C547.678,799.754 542.257,795.605 544.495,792.495C549.351,785.745 535.085,785.016 537.482,791.511C538.988,795.594 535.741,795.097 535.261,799.463C534.856,803.146 536.723,803.272 534.591,810.087ZM542.493,721.677C535.7,721.097 505.141,733.335 502.549,746.507C502.204,748.264 501.191,747.849 478.497,741.826C478.505,741.885 477.048,742.605 478.686,743.179C492.638,748.066 506.014,749.78 502.319,752.155C501.469,752.701 500.523,752.88 502.416,762.508C503.057,765.589 503.212,765.413 503.657,768.47C504.289,772.804 505.15,772.411 505.884,773.562C507.854,756.494 531.811,735.08 544.5,733.598C547.513,733.246 545.699,731.761 544.809,723.459L542.493,721.677ZM673.529,696.264C674.785,692.316 677.399,688.789 673.722,690.878C669.716,693.155 669.783,693.205 669.412,693.348C663.314,695.699 672.175,696.05 673.529,696.264ZM632.685,674.324C636.048,672.884 634.723,671.805 636.27,663.437C639.685,644.96 631.266,668.046 632.685,674.324ZM511.457,797.828C517.982,795.315 522.032,772.07 590.589,749.732C605.988,744.714 611.137,746.511 613.553,743.317C612.032,742.968 596.412,739.383 594.753,738.132C586.554,731.949 613.713,743.805 612.87,739.444C611.876,734.301 614.812,738.698 616.512,740.445L617.518,740.76C617.805,740.396 618.786,741.05 618.509,739.501C618.463,739.246 618.509,739.391 613.726,732.354C594.057,703.413 554.822,616.764 549.148,600.713C546.58,594.925 537.047,573.441 525.795,525.086C524.122,528.19 523.287,529.739 510.995,566.61C508.273,575.803 510.091,575.953 509.665,576.642C509.288,577.252 508.422,576.89 506.624,584.536C504.655,581.191 507.222,575.377 506.741,573.386C503.475,559.869 511.127,546.76 513.835,474.411C513.659,474.794 512.769,474.266 512.593,474.649C511.159,477.77 505.252,551.79 504.716,558.506C502.595,585.08 503.995,586.699 505.565,588.517C505.079,592.109 505.089,592.087 505.04,592.396C500.373,621.777 498.836,621.492 497.462,650.504C496.112,679.018 496.355,678.993 496.156,681.464C494.176,706.084 498.36,730.329 498.469,732.506C500.287,768.603 492.289,713.165 493.686,683.51C495.511,644.781 496.338,644.875 496.449,641.509C497.747,601.954 508.169,585.194 497.483,586.385C478.498,588.501 478.697,585.373 459.534,584.19C453.939,583.844 456.759,586.917 456.552,592.501C455.464,621.908 454.381,621.837 454.647,624.378C454.726,625.126 474.753,624.576 476.5,624.528C476.854,624.518 500.429,625.175 480.487,626.448C456.816,627.959 456.8,626.371 454.767,626.686C454.351,626.751 452.761,643.995 452.622,645.503C451.548,657.144 443.553,712.09 443.419,730.645C461.995,735.485 461.829,735.476 480.606,740.132C494.145,743.489 498.376,746.994 501.828,741.742C510.272,728.895 536.224,717.812 543.359,719.717C543.894,719.944 543.843,719.875 545.342,720.122C546.701,720.068 547.118,719.542 547.21,720.574C547.753,726.632 547.518,726.513 548.243,732.511C548.833,737.383 542.069,734.041 531.824,741.925C505.41,762.25 508.069,778.534 507.275,780.197C506.737,781.543 504.892,786.159 511.457,797.828ZM630.567,665.563C631.138,662.873 632.258,660.96 631.62,656.472C622.909,646.321 622.142,629.192 620.327,642.46C619.871,645.797 619.889,645.641 618.407,648.513C624.355,657.247 624.212,657.157 630.567,665.563ZM234.741,595.474L234.841,597.43C236.432,601.759 236.985,595.883 251.686,587.845C259.943,583.33 259.848,582.945 268.53,582.761C269.323,582.744 274.3,570.749 257.416,576.229C232.729,584.243 233.861,588.139 234.741,595.474ZM622.543,617.707C622.52,620.198 622.417,620.207 622.518,620.397C622.526,620.413 628.066,617.866 622.543,617.707ZM674.581,651.001C664.592,645.787 658.903,670.157 664.301,667.058C669.68,663.97 669.981,662.789 672.552,662.855C673.382,662.877 682.398,654.725 674.581,651.001ZM504.143,787.516C504.56,794.27 504.754,794.11 504.63,799.427C507.06,799.329 506.933,799.16 509.155,798.218C505.726,789.186 506.304,788.689 504.143,787.516ZM196.934,566.42C196.719,566.159 196.677,565.782 196.462,565.521C196.366,565.406 194.587,563.254 194.587,565.506C194.587,565.708 194.761,565.574 196.934,566.42Z" style="fill:white;"/>
                <path d="M693.541,606.566C692.562,607.584 691.438,609.924 690.435,610.306C689.394,610.702 686.278,611.237 682.378,613.264C674.66,617.277 660.55,627.612 660.52,627.616C657.306,628.032 657.743,618.362 657.781,617.526C658.445,602.835 710.12,599.958 693.541,606.566ZM692.597,605.292C690.054,605.565 671.299,607.577 661.534,612.829C660.893,613.173 659.165,625.048 662.349,623.137C663.457,622.471 673.18,615.183 683.391,610.265C688.172,607.963 688.339,608.455 692.597,605.292Z" style="fill:white;"/>
                <path d="M108.817,567.215C85.581,538.888 85.599,538.894 83.476,536.521C81.348,534.141 57.227,507.17 57.254,506.439C57.3,505.228 59.05,504.622 68.875,516.169C83.726,533.626 83.659,533.615 84.953,535.125C90.798,541.945 183.203,649.78 155.576,622.409C151.465,618.336 151.51,618.326 108.817,567.215Z" style="fill:white;"/>
                <path d="M192.577,560.822C192.584,558.794 212.412,437.18 214.863,433.729C216.885,430.882 220.958,432.833 218.396,434.241C217.249,434.871 215.625,434.697 207.068,486.416C204.633,501.134 198.769,540.342 193.58,561.426L192.577,560.822Z" style="fill:white;"/>
                <path d="M101.092,401.421C108.372,401.387 118.562,413.25 142.562,425.384C161.052,434.733 161.464,433.583 174.406,439.719C189.216,446.74 202.006,447.655 203.883,448.204C215.976,451.747 194.83,454.912 137.577,425.348C130.862,421.881 103.526,404.626 101.092,401.421Z" style="fill:white;"/>
                <path d="M473.631,837.973C441.278,847.271 440.785,842.607 417.459,840.879C405.58,839.998 391.57,848.603 389.573,849.829C382.231,854.339 396.949,834.892 422.546,839.269C426.251,839.903 452.21,844.343 469.505,837.51C471.665,836.656 471.67,836.875 473.631,837.973Z" style="fill:white;"/>
                <path d="M365.608,621.132C377.69,625.324 405.709,634.24 395.56,633.738C392.941,633.608 327.184,613.722 337.273,611.102C339.601,610.497 339.297,612.278 365.608,621.132Z" style="fill:white;"/>
                <path d="M296.477,680.293C260.562,682.887 254.207,672.642 241.313,688.273C235.227,695.652 241.714,674.216 266.489,676.804C267.426,676.902 283.977,680.917 302.416,677.01C304.39,676.592 317.325,671.456 314.041,675.033C311.426,677.881 297.925,680.06 296.477,680.293Z" style="fill:white;"/>
                <path d="M137.143,442.89C139.482,450.158 118.972,435.268 118.292,434.804C99.704,422.134 98.066,423.356 98.436,421.478C98.955,418.84 100.807,419.805 128.744,436.022C133.396,437.957 133.925,436.974 136.746,440.542L137.143,442.89Z" style="fill:white;"/>
                <path d="M486.835,645.503C487.163,635.12 487.327,634.703 486.461,634.584C486.158,634.542 477.491,636.123 472.515,636.272C451.414,636.905 476.143,633.783 476.52,633.74C479.842,633.364 490.388,630.067 489.89,634.6C488.559,646.721 492.406,658.636 468.402,652.756C466.459,652.28 465.115,631.778 467.587,638.426C469.713,644.144 466.397,651.03 476.621,652.008C484.128,652.726 486.118,652.887 486.835,645.503Z" style="fill:white;"/>
                <path d="M613.256,343.821C609.993,341.94 607.43,342.623 609.311,339.265L614.347,340.556C612.228,338.699 612.335,338.78 609.78,337.549C611.962,335.908 612.292,335.92 614.385,337.641C622.202,344.072 621.773,344.479 630.16,349.97C632.085,351.23 630.505,353.411 631.584,354.432C635.986,358.601 637.679,359.057 638.083,359.719C642.473,366.906 622.385,351.421 613.256,343.821ZM628.225,352.092C628.007,351.712 625.304,346.985 623.926,348.705C622.478,350.512 624.387,350.155 628.225,352.092Z" style="fill:white;"/>
                <path d="M439.305,834.865C441.861,834.591 462.576,832.372 471.436,834.705C470.922,834.757 471.097,835.946 470.583,835.998C467.898,836.272 465.193,835.642 462.494,835.618C451.9,835.524 452.089,835.879 441.434,837.028C436.438,837.566 436.58,837.385 431.44,838.032C421.685,839.261 410.03,831.581 412.777,829.928C416.741,827.543 415.889,837.908 435.748,834.897L435.947,833.282C434.377,829.596 439.796,829.522 439.32,833.455L439.305,834.865Z" style="fill:white;"/>
                <path d="M545.298,517.74C544.562,517.13 529.856,504.96 539.562,507.253C539.673,507.279 539.562,507.253 540.76,508.016C546.915,512.28 573.359,535.8 562.547,532.373C560.822,531.826 561.541,530.822 545.298,517.74Z" style="fill:white;"/>
                <path d="M193.519,240.743C193.65,240.882 231.431,274.093 216.683,265.067C215.419,264.294 198.549,250.543 196.999,249.009C190.034,242.119 192.852,241.007 193.519,240.743Z" style="fill:white;"/>
                <path d="M219.669,463.312C219.666,459.854 233.195,466.564 234.658,467.151C239.058,468.917 241.97,467.063 240.381,469.427C233.819,479.19 237.455,486.91 234.379,484.749C234,484.483 234.285,483.71 233.906,483.444C233.927,475.735 235.034,475.995 235.937,471.569C236.229,470.139 235.502,470.222 219.669,463.312Z" style="fill:white;"/>
                <path d="M217.433,462.808C219.792,471.792 210.41,475.045 214.479,476.539C228.561,481.71 231.363,482.105 231.566,484.773C229.832,484.343 210.001,479.425 210.787,476.59C211.084,475.517 211.598,475.82 215.993,463.673C216.039,463.547 215.993,463.673 217.433,462.808Z" style="fill:white;"/>
                <path d="M236.906,557.515C237.032,557.171 238.101,554.25 239.615,553.821C257.139,548.853 255.981,545.074 257.357,545.804C261.178,547.83 239.48,556.286 239.278,558.452C238.596,565.781 236.947,557.715 236.906,557.515Z" style="fill:white;"/>
                <path d="M502.492,654.489C496.273,656.418 500.031,651.692 500.526,651.571C504.342,650.635 518.991,648.093 518.842,649.54C518.439,653.46 510.022,650.005 502.492,654.489Z" style="fill:white;"/>
                <path d="M501.554,716.925C496.778,715.972 500.668,712.65 508.493,712.704C516.204,712.757 520.194,712.031 517.105,714.12C513.239,716.735 510.375,713.236 501.554,716.925Z" style="fill:white;"/>
                <path d="M261.451,646.304C258.81,646.398 258.354,645.799 259.166,643.376C259.27,643.066 259.235,642.722 259.32,642.406C260.144,639.367 261.403,644.351 264.302,643.094C270.793,640.278 266.042,635.772 268.51,635.771C269.887,635.771 270.459,639.074 270.074,640.548C269.218,643.829 262.242,646.052 261.451,646.304Z" style="fill:white;"/>
                <path d="M507.512,599.038C516.456,599.667 516.322,599.69 516.513,599.625C520.907,598.135 518.425,601.112 518.264,601.211C513.936,603.863 512.945,599.714 508.605,602.631C505.91,604.442 502.827,600.868 507.512,599.038Z" style="fill:white;"/>
                <path d="M669.689,580.774C672.232,579.758 672.21,580.069 674.518,579.574C677.488,578.938 680.24,573.78 681.461,573.821C688.383,574.052 663.838,589.998 669.689,580.774Z" style="fill:white;"/>
                <path d="M394.499,393.501C392.87,391.072 393.1,391.054 390.648,389.305C388.385,387.69 392.995,386.336 395.4,390.561C399.942,398.535 402.615,395.653 402.683,396.396C402.746,397.088 400.732,402.587 394.499,393.501Z" style="fill:white;"/>
                <path d="M471.436,834.705C470.916,833.641 463.617,824.544 468.501,824.57C471.609,824.586 472.764,832.901 472.423,834.689L471.436,834.705Z" style="fill:white;"/>
                <path d="M261.438,457.413C264.059,455.019 263.982,455.13 266.618,452.683C272.277,447.428 266.928,458.235 257.472,462.135C257.016,462.323 255.526,460.534 261.438,457.413Z" style="fill:white;"/>
                <path d="M248.534,508.701C254.268,507.112 253.987,506.418 254.498,506.391C255.186,506.354 256.253,508.865 247.441,511.325C245.855,511.768 246.544,514.057 245.511,514.093C245.017,514.11 240.356,511.37 248.534,508.701Z" style="fill:white;"/>
                <path d="M264.307,637.492C264.303,637.69 263.025,647.303 262.104,638.613C261.271,630.75 267.795,625.37 266.735,629.51C265.674,633.658 265.078,633.352 264.307,637.492Z" style="fill:white;"/>
                <path d="M687.323,466.284C687.144,466.44 677.618,474.056 684.469,465.478C689.114,459.662 694.116,466.45 691.447,466.201C689.744,466.042 689.694,464.925 687.323,466.284Z" style="fill:white;"/>
                <path d="M461.487,853.94C461.141,853.81 458.377,852.768 458.41,850.498C458.491,845.097 466.54,852.148 461.487,853.94Z" style="fill:white;"/>
                <path d="M680.717,522.943C683.396,521.515 683.144,521.456 685.679,519.843C687.482,518.695 688.025,521.712 683.339,524.22C683.134,524.331 670.915,529.369 680.717,522.943Z" style="fill:white;"/>
                <path d="M303.65,652.788C303.958,652.724 306.982,652.101 307.528,653.484C308.652,656.335 304.132,655.232 303.543,655.68C293.767,663.126 303.474,652.939 303.65,652.788Z" style="fill:white;"/>
                <path d="M294.316,672.673C294.724,674.672 294.298,675.1 292.468,674.558C291.997,674.419 286.338,676.289 287.962,673.889C289.828,671.13 293.826,672.504 294.316,672.673Z" style="fill:white;"/>
                <path d="M548.275,836.24C542.979,838.788 545.904,832.558 548.456,832.941C550.79,833.291 549.805,834.327 548.275,836.24Z" style="fill:white;"/>
                <path d="M504.383,824.066C506.455,824.631 506.306,825.582 504.569,826.651C496.35,831.712 504.213,824.186 504.383,824.066Z" style="fill:white;"/>
                <path d="M681.234,681.159C683.254,680.397 684.719,679.529 683.992,681.567C683.005,684.332 678.934,683.807 681.234,681.159Z" style="fill:white;"/>
                <path d="M691.267,682.248C693.452,681.462 693.533,680.983 694.008,681.793C695.44,684.238 688.803,685.315 691.267,682.248Z" style="fill:white;"/>
                <path d="M484.721,798.814C486.278,798.642 486.702,798.025 487.119,799.576C487.678,801.647 482.695,802.367 484.721,798.814Z" style="fill:white;"/>
                <path d="M315.543,640.685C315.753,640.695 317.92,640.8 318.016,641.572C318.304,643.893 311.788,642.608 315.543,640.685Z" style="fill:white;"/>
                <path d="M274.542,653.068C273.27,651.454 273.254,651.617 273.27,651.454C273.444,649.682 277.397,651.54 274.542,653.068Z" style="fill:white;"/>
                <path d="M213.687,660.151C215.918,663.763 212.809,662.342 212.645,662.252C210.942,661.323 211.836,660.671 213.687,660.151Z" style="fill:white;"/>
                <path d="M199.537,657.466C199.656,662.902 197.572,657.714 197.65,657.573C197.65,657.573 199.386,657.475 199.537,657.466Z" style="fill:white;"/>
                <path d="M463.478,845.376C460.132,843.362 463.376,843.383 463.534,843.39C465.131,843.458 464.608,844.274 463.478,845.376Z" style="fill:white;"/>
            </g>
        </g>
    </g>
</svg>
