<?xml version="1.0" encoding="UTF-8" standalone="no"?><!DOCTYPE svg PUBLIC "-//W3C//DTD SVG 1.1//EN" "http://www.w3.org/Graphics/SVG/1.1/DTD/svg11.dtd"><svg width="434" height="558" viewBox="0 0 434 558" version="1.1" xmlns="http://www.w3.org/2000/svg" xmlns:xlink="http://www.w3.org/1999/xlink" xml:space="preserve" xmlns:serif="http://www.serif.com/" style="fill-rule:evenodd;clip-rule:evenodd;stroke-linejoin:round;stroke-miterlimit:2;"><rect id="アートボード2" x="0" y="0" width="434" height="558" style="fill:none;"/><rect x="10.5" y="29" width="413.5" height="514"/><g id="早慶戦-6.png"><path d="M78.191,206.698c-8.761,20.206 -10.43,19.415 -17.958,40.049c-10.256,37.914 -8.157,43.275 -10.989,47.999c-3.011,5.021 -0.328,-1.91 2.164,-14.971c8.328,-43.655 11.87,-42.558 22.106,-65.627c7.001,-15.778 7.282,-15.57 16.224,-30.405c9.014,-14.955 10.921,-13.65 14.534,-20.49c-1.056,-2.621 -1.859,-1.691 -3.571,-2.438c-0.314,-0.137 -1.88,-1.96 0.056,-1.132c1.742,0.745 2.734,-0.679 4.523,2.658c13.917,-16.89 39.844,-35.835 48.414,-40.223c2.011,-1.03 3.007,1.2 1.566,1.053c-4.733,-0.485 -44.839,32.018 -49.055,40.564c4.018,3.587 5.593,4.114 6.108,4.39c13.953,7.454 12.887,10.066 27.47,13.004c10.998,2.216 -4.011,2.191 -15.445,-4.528c-13.516,-7.943 -15.92,-9.762 -17.215,-10.741c-0.869,-0.752 -0.715,-0.77 -1.436,-1.742c-8.541,9.493 -20.554,28 -27.039,41.616c22.906,15.867 23.637,14.576 45.055,21.633c10.042,3.309 -19.226,-0.517 -42.17,-18.383c-0.441,-0.344 -3.072,-2.105 -3.341,-2.285Z" style="fill:#fff;"/><path d="M110.417,357.905c0.857,-3.691 1.236,-3.922 -0.85,-7.032c-2.52,-3.757 -2.55,-3.65 -5.291,-7.215c-2.248,2.665 -2.939,27.82 -4.615,22.65c-0.875,-2.698 2.952,-21.693 3.328,-23.558c-0.248,-1.479 -1.005,-1.054 -11.473,-14.823c-0.881,-1.159 -2.436,-2.85 -3.659,-4.223c-1.647,-0.759 -3.493,-1.613 -5.554,-2.57c-12.238,-5.68 -24.502,-12.977 -40.605,-20.303c-1.088,-0.495 0.41,-1.096 0.653,-1.232c-4.839,-1.74 -5.386,-3.607 -4.093,-3.497c0.66,0.056 3.957,2.33 30.001,14.125c35.357,16.012 35.264,16.298 37.528,16.685l0.501,0.302c1.018,0.678 18.319,8.85 18.524,8.093c0.953,-3.535 -3.145,-3.963 4.543,-45.542c2.057,-11.127 1.793,-11.112 5.082,-22.004c-2.957,-3.303 -14.704,-5.918 -16.048,-6.217c-10.714,-2.385 2.144,-0.742 2.337,-0.712c8.152,2.129 12.275,5.105 14.314,5.309c3.251,-10.35 1.524,-10.606 3.291,-21.375c0.494,-3.012 3.619,-22.065 7.151,-37.471c0.216,-1.415 0.301,-1.465 -0.62,-2.497c1.436,-2.985 1.924,-4 8.442,-40.536c3.451,-19.348 3.295,-19.307 7.246,-38.548c0.116,-0.566 5.645,-29.673 3.317,-10.452c-1.013,8.361 -16.126,89.239 -15.83,91.515c3.638,27.942 2.551,61.271 21.413,108.388c3.006,7.508 6.727,14.336 8.514,17.977c-0.217,-0.136 -0.54,0.276 -0.757,0.139c-2.702,-1.697 -11.089,-23.911 -11.898,-26.055c-10.338,-27.381 -7.721,-28.874 -9.689,-35.279c-2.709,-8.82 -6.173,-38.675 -6.4,-39.701c-0.951,-11.144 -1.046,-11.051 -2.012,-22.116c-1.545,9.759 -1.532,9.752 -1.673,10.599c-0.546,3.31 -0.565,3.285 -0.59,3.573c-0.511,2.991 -0.506,2.961 -0.509,2.991l-0.519,2.994c-0.077,0.44 -0.524,2.994 -0.979,5.496c-1.003,5.801 -1.042,5.734 -2.138,11.475c0.145,-0.022 0.361,0.883 0.831,-0.125c3.175,-6.812 3.578,-6.551 6.555,-13.401c1.051,1.736 0.076,1.847 -6.825,16.057c-0.873,2.222 -0.891,2.15 -1.517,4.502c-2.163,7.273 -2.138,7.269 -2.332,7.898c-5.63,18.277 -5.045,18.356 -8.835,37.05c-3.648,18.001 -3.086,40.084 -1.939,39.372c1.035,-0.642 8.379,-5.196 13.979,-6.042c7.631,-1.153 4.775,10.782 4.009,7.695c-1.032,-4.158 -14.065,3.898 -17.349,8.07c-0.709,0.9 1.592,15.541 2.496,18.712c0.235,0.826 0.501,-0.016 8.043,-7.118c2.641,-2.487 15.188,-14.303 39.836,-21.677c-1.518,-1.854 -7.667,-3.578 -9.645,-4.268c-7.284,-2.541 1.495,-0.723 1.63,-0.681c3.407,1.068 3.189,1.494 6.55,2.644c1.24,0.424 -1.729,-3.279 -1.466,-3.654c0.235,-0.334 0.57,-0.325 3.458,3.763l0.672,-2.204c13.817,-60.453 33.839,-83.185 32.607,-86.553c-0.425,-1.162 1.406,-0.63 2.447,-2.209c13.533,-20.539 16.94,-22.811 44.556,-44.054c0.931,-0.716 5.865,-4.511 12.187,-8.189l0.312,0.481c-1.703,3.779 -37.364,21.228 -54.973,50.908c20.094,11.454 20.137,11.559 42.64,17.118c26.603,6.572 -24.858,-1.001 -43.019,-16.665c-2.873,3.892 -0.056,3.916 3.708,6.852c2.664,2.078 18.206,10.859 11.31,9.339c-5.802,-1.279 -17.164,-12.936 -18.152,-11.336c-8.898,14.405 -15.968,31.195 -21.272,46.236c0.895,0.34 2.524,1.227 2.582,1.259c8.77,4.778 33.619,14.554 53.918,13.773c6.322,-12.584 13.861,-31.268 17.271,-42.122c0.001,0.301 0.696,0.275 0.697,0.576c0.006,2.347 -8.167,23.455 -16.594,41.495c0.203,-0.048 2.169,-0.516 2.567,-0.481c1.227,0.108 0.325,1.283 -3.017,1.447c-0.941,1.773 -0.817,1.74 -9.77,23.111c-0.673,1.607 -1.457,2.521 0.298,2.457c7.375,-0.267 20.747,2.545 20.829,0.439c0.323,-8.224 0.612,-16.833 5.179,-57.98c1.423,-11.91 2.248,-11.987 1.135,-14.467c1.182,-5.45 5.809,-81.69 6.92,-82.371c1.513,-0.926 0.622,1.092 -3.377,57.36c-1.384,19.466 -1.854,19.4 -0.903,28.98c0.298,2.998 0.268,27.34 4.106,36.623l0.925,-0.76c10.856,-46.966 19.4,-62.794 35.975,-88.498c0.445,-0.69 0.301,-0.711 0.566,-1.338c-0.153,-0.23 -3.268,-4.901 -0.985,-3.31c1.021,0.712 0.178,1.87 2.068,2.174c3.568,-5.329 3.902,-5.019 7.032,-8.916c11.92,-14.843 40.648,-32.698 44.29,-34.228c2.315,-1.901 2.116,-7.909 2.392,-9.178c1.086,-4.991 1.66,1.693 -1.087,15.441c-4.535,22.701 -4.224,22.682 -8.681,45.475c1.664,0.888 1.032,1.373 2.512,9.529c1.55,8.542 1.399,8.592 1.852,9.19c0.784,1.033 0.99,1.002 0.641,2.258c-0.852,3.063 13.081,53.486 14.357,58.101c10.199,36.909 17.606,43.515 16.172,43.686c-4.021,0.481 -17.061,-40.731 -22.42,-61.756c-0.726,-2.849 -8.732,-34.258 -8.83,-35.68c-0.215,-3.146 -4.233,10.776 -4.512,11.743c-12.358,42.823 -14.417,62.036 -15.963,67.003c-0.192,-0.717 -0.8,-0.52 -0.549,-2.047c4.972,-30.252 13.532,-59.389 15.025,-64.47c3.588,-12.214 5.91,-11.968 4.469,-19.571c-2.719,-14.343 -1.951,-15.259 -3.161,-15.981c-1.258,10.373 -11.618,64.058 -10.794,65.949c0.041,0.094 -0.04,0.086 -0.544,1.16c-0.132,0.341 -14.736,82.401 -14.183,83.422c0.027,0.05 0,0 0.551,0.458c1.672,1.614 1.644,1.551 3.137,3.373c2.327,2.839 0.943,-13.364 1.477,-20.844c1.088,-15.224 2.945,-25.887 3.334,-28.119c0.268,-1.974 -0.359,-2.527 1.086,-2.895c-0.164,1.827 -0.081,1.809 -0.335,2.642c-0.914,8.712 -1.267,8.591 -2.147,17.366c-1.001,9.983 -1.286,26.793 -1.033,29.424c0.017,0.175 0.474,0.02 0.49,0.195c0.858,-0.712 0.849,-0.597 1.687,-1.401c4.123,-3.954 4.295,-3.626 8.967,-6.978c25.729,-18.46 38.921,-21.676 40.539,-22.694c-1.404,-0.975 -1.48,-0.707 -3.138,-1.264c-15.076,-5.064 -15.239,-4.412 -16.527,-4.907c-6.269,-2.411 1.277,-0.751 1.398,-0.718c7.882,2.133 7.747,2.415 15.559,4.748c1.363,0.407 -1.215,-1.923 -1.362,-2.055c-11.262,-10.178 4.802,1.896 5.455,4.097c-0.141,0.984 -0.072,0.943 -0.141,0.984c-9.589,5.666 -21.327,16.338 -37.312,27.271c0.148,-0.226 -0.337,-0.563 -0.189,-0.789c0.331,-0.505 0.966,-0.727 1.433,-1.109c12.764,-10.438 24.836,-18.817 27.062,-20.362c17.778,-12.339 -31.146,14.386 -28.791,16.344c3.262,2.713 -1.241,3.261 -0.792,6.637c-2.938,5.575 -3.805,5.05 -3.842,5.592c-0.542,7.92 -6.207,9.398 -8.571,13.053c5.456,-0.165 6.414,-1.985 6.68,-2.49c0.916,-1.739 2.059,-0.309 2.859,-0.586c3.521,-1.219 0.943,1.514 0.422,4.684c5.125,-0.099 4.988,-0.685 10.091,-1.516c0.725,-0.118 1.308,0.897 -0.488,1.386c-1.044,0.285 -0.951,0.266 -1.933,0.54c0.553,0.379 2.546,1.745 8.377,-0.216c3.684,-1.239 -0.907,3.515 -9.488,1.32c-1.362,-0.291 -1.35,-0.318 -1.471,-0.315c-6.527,0.196 -6.48,-0.084 -7.017,0.079c-6.552,1.983 -7.668,4.461 -8.494,4.529c-0.638,0.053 -1.462,-2.05 6.501,-4.669c3.475,-1.143 -16.492,-4.095 -22.545,3.17c-0.009,0.465 0.545,0.053 0.536,0.509c-0.001,0.052 -0.004,0.183 -0.553,0.336c-4.827,1.344 -1.019,-3.58 6.882,-5.975c-1.437,-0.952 -1.348,-0.944 -2.861,-1.761l-0.921,0.38c0.641,0.747 1.378,0.633 0.758,1.374c-2.975,3.557 -9.294,-3.461 -15.758,1.207c-0.761,-0.063 -1.275,-0.025 -0.755,-0.648c5.047,-6.062 19.248,3.21 13.998,-2.376c-0.19,-0.608 -0.953,-3.056 -7.734,-1.906c-3.507,0.594 -0.13,-1.089 -0.043,-1.105c6.504,-1.204 12.893,3.465 13.557,3.644c0.271,0.073 0.223,-0.755 0.494,-0.682c-0.155,-3.917 2.204,2.581 4.478,1.08c0.291,-0.192 -0.135,-0.843 0.157,-1.036c0.497,-0.531 4.833,-5.166 4.284,-8.022c-0.048,-0.251 -1.43,-1.438 -2.071,2.428c0.015,0.273 0.566,0.306 0.581,0.579c0.006,0.119 -0.575,1.261 -1.317,-0.684c-1.081,-1.695 -0.667,-2.488 -2.662,-2.424c-6.02,0.193 -7.091,1.111 -7.559,1.512c-0.535,0.458 -1.091,-0.575 -1.93,-0.572c-7.125,0.027 -9.64,2.157 -9.949,2.005c-3.781,-1.864 10.966,-3.294 11.103,-3.795c0.505,-1.851 0.963,-1.968 -0.177,-3.553c-3.03,-3.961 -3.019,-3.851 -4.941,-6.579c-1.135,1.045 -0.81,1.759 -2.112,6.111c4.592,2.441 4.41,3.138 4.024,3.291c-0.038,0.015 -8.948,-4.281 -9.362,-4.509c-7.095,-3.905 -29.17,-20.668 -10.443,-8.058c10.593,7.133 13.103,8.261 14.331,8.812c2.17,-2.868 1.212,-3.242 2.593,-6.579c-0.74,-2.321 -6.276,-6.55 -8.553,-10.51c-4.028,-7.006 2.152,0.52 2.273,0.667c5.639,6.867 5.649,6.844 6.133,7.446c1.652,-1.561 2.109,-13.527 2.077,-14.611c-9.798,-1.83 -9.654,-2.192 -18.971,-4.633c-0.151,-0.04 -2.764,-0.48 -3.004,-0.521c-6.324,-1.067 -6.121,-1.498 -12.109,-3.614c-0.945,1.777 -0.013,1.833 6.129,15.76c5.075,11.506 14.914,31.358 16.255,34.064c7.884,14.6 11.486,18.879 12.722,20.347c0.101,-0.027 3.772,-0.936 0.704,1.108c0.093,0.132 5.346,7.589 0.258,2.009c-0.707,-0.776 -0.631,-0.761 -1.537,-1.139c-1.07,0.748 -0.955,0.765 -1.855,1.763c-0.741,0.756 -0.673,0.746 -1.474,1.504c-35.743,33.805 -35.435,34.075 -38.692,36.843c0.471,3.588 0.616,3.636 0.394,3.852c-0.866,0.841 -1.517,-2.316 -1.813,-2.373c-0.659,-0.129 -9.903,8.974 -8.017,8.553c2.768,-0.618 2.69,0.263 7.052,0.864c3.72,0.633 3.62,0.736 3.938,0.779c15.53,2.113 25.824,-6.08 19.367,-1.346c-5.938,4.353 -21.927,2.032 -23.818,1.758c-1.048,0.834 -1.739,0.071 -2.076,1.411c-0.653,2.602 -1.189,-2.154 -1.587,-2.254c-1.876,-0.47 -1.448,2.485 -3.035,1.352l0.166,-1.088c-0.073,-0.054 0,-0 -0.988,0.556c-0.433,0.283 -5.006,3.269 -6.455,0.465l0.354,-0.911c-0.876,0.035 -1.657,0.066 -10.348,3.59c-6.894,2.795 2.114,-2.898 10.644,-4.958c-0.339,-0.107 -0.36,-0.699 -0.699,-0.806c-0.635,-0.2 -1.336,0.044 -1.996,-0.042l-2.459,-0.34l0.476,-1.059c2.818,0.431 2.741,0.418 5.564,0.618c3.608,-5.518 3.514,-13.421 3.499,-14.624c0.211,-1.758 0.217,-1.741 -0.334,-3.403c-0.894,-2.698 -1.639,-2.305 -4.378,-1.672l-0.293,0.19c0.933,0.746 0.852,0.707 1.853,1.483c1.401,1.086 2.257,0.978 1.484,2.526c-2.141,-1.692 -2.405,-1.32 -3.959,-3.474c-1.249,-0.12 -0.824,1.227 -2.024,1.04c-2.118,-0.331 -2.035,0.209 -21.989,7.225c-1.78,0.626 -16.708,5.874 -23.397,3.026c-0.238,-0.101 -0.41,-1.099 0.932,-0.836c10.033,1.964 16.848,-1.656 21.52,-3.547c1.779,-0.72 -0.382,-3.36 -0.818,-4.174c-2.912,-1.408 -6.835,-6.209 -7.106,-4.82c-1.512,7.762 -1.2,9.575 -2.389,8.285c-0.502,-0.545 3.161,-8.283 0.456,-10.511c-26.739,-22.023 -42.451,-36.764 -54.981,-43.517c-7.902,-4.258 4.838,-0.497 17.809,11.225c1.112,1.005 30.532,25.551 33.19,27.769c2.101,1.753 2.085,1.672 5.317,4.163c0.139,-4.564 1.532,-19.361 1.892,-20.396c-0.679,-1.138 -19.329,-17.344 -11.466,-11.911c5.4,3.731 5.831,2.973 10.964,7.078c0.531,-1.115 1.378,-0.883 1.035,-4.588c-20.519,-6.586 -20.485,-6.548 -41.385,-11.875c0.226,0.138 -0.684,0.511 -0.458,0.649c1.248,0.765 1.612,-0.313 17.397,5.679c8.186,3.108 14.61,4.018 9.53,3.911c-4.067,-0.086 -29.462,-9.607 -31.985,-10.553c-13.356,-3.785 -13.457,-3.728 -13.508,-3.946c-0.05,-0.209 -0.066,-0.28 2.511,-0.952c1.843,-0.481 53.372,13.408 57.992,14.653c1.238,-3.208 -0.124,-3.421 5.084,-42.68c0.094,-0.711 1.177,-8.871 0.791,-8.936c-1.623,-0.277 -5.382,0.187 -18.39,-2.511c-20.518,-4.257 -30.458,-10.366 -39.396,-12.008c-1.174,5.14 -2.211,10.844 -4.274,29.918c-1.935,17.888 0.079,18.26 -0.969,19.408c-1.817,1.991 -1.067,-10.49 -1.012,-11.404l0.122,-1.506c1.587,-13.579 1.698,-20.406 6.021,-41.972c-1.623,-0.116 -20.005,6.543 -30.335,13.7c-1.514,1.049 0.15,1.458 -0.161,3.293c-0.803,4.741 1.064,4.819 -0.084,9.475c0.328,0.07 0.245,0.756 0.572,0.826c1.386,0.296 18.847,-17.012 19.618,-17.695c3.34,-2.958 3.474,-0.272 3.356,-0.25c-2.392,0.446 -2.362,0.65 -6.943,5.154c-14.817,14.569 -15.618,14.073 -17.236,13.433c-0.687,1.814 -3.692,5.344 -4.696,5.728c-5.142,1.966 1.432,-1.326 3.715,-6.301c1.876,-4.088 -0.079,-6.652 -0.104,-6.885c-0.262,-2.458 -1.194,-1.694 -3.586,-2.276c-3.072,2.672 -11.086,10.269 -11.66,11.271c-1.362,1.134 -1.259,1.438 -0.252,2.913l0.215,0.594c0.005,5.559 -1.014,5.258 -3.729,10.003c-2.258,3.945 20.249,-10.687 3.729,-10.003c0.339,-0.496 0.125,-0.617 0.648,-0.948c0.29,-0.184 0.195,-0.215 0.475,-0.393c0.584,0.016 7.699,0.208 5.881,4.33c-1.512,3.427 -1.022,3.723 -1.339,3.763c-1.495,0.186 -1.435,0.236 -2.614,1.217c-4.385,3.648 4.077,-0.601 7.006,1.099c5.036,2.922 -3.231,-1.535 -11.363,3.132c-0.962,0.785 -0.945,0.134 -1.588,-0.512c-1.878,0.178 -1.867,0.163 -2.028,0.192c-8.946,1.603 -13.828,-2.287 -23.487,-0.989c-7.592,1.02 -14.178,9.544 -9.751,3.264c5.106,-7.244 21.434,-3.906 23.28,-3.529c5.464,1.117 -12.938,-7.924 -17.39,-5.434c-2.026,-0.733 -1.989,-1.161 -3.998,-0.566c-2.143,0.635 1.422,-0.055 2.443,1.537c-10.589,1.488 -16.88,-2.898 -24.624,5.314c-1.784,1.892 -1.555,-4.02 9.568,-6.29c7.172,-1.463 11.776,2.75 10.287,-3.133c-0.693,-2.739 1.389,-2.958 7.173,-4.131c7.026,-1.425 16.142,-1.764 16.078,-2.401c-0.384,-3.866 -0.708,-3.831 0.118,-8.483c0.195,-1.098 -0.014,-1.004 -0.72,-1.888c-1.932,0.865 -1.03,9.963 -3.952,9.787c-2.122,-0.128 -0.27,-8.386 0.159,-9.767c1.794,3.489 -0.298,3.612 -0.197,7.353c0.17,6.337 1.804,-7.406 2.533,-8.005c1.362,-1.118 -0.415,-2.269 -0.859,-1.386c-0.09,0.18 -0.526,1.047 -1.477,2.038Zm212.817,-87.201c-4.804,-0.068 -29.593,-12.019 -31.912,-17.019c-0.817,-1.762 -9.574,22.489 -11.958,34.577c-0.027,0.135 15.566,17.825 45.903,24.354c1.862,0.401 2.918,-0.473 4.682,-23.337c0.157,-2.031 1.722,-1.964 1.673,-1.552c-1.788,15.063 -3.155,22.09 -3.525,23.995c-0.347,1.783 0.426,1.499 2.046,2.189c0.33,0.141 0.226,1.315 -1.344,0.685c-1.845,-0.74 -3.062,2.177 -0.04,2.53c3.769,0.441 0.805,5.138 1.021,7.61c0.249,2.85 -1.77,0.552 -4.447,1.597c-4.783,24.949 -3.859,25.085 -4.39,27.226c0.381,0.208 0.864,0.473 5.258,1.333c1.068,-0.586 0.997,-0.849 1.5,-0.54c0.339,0.209 -0.614,1.396 -0.697,1.499c0.007,0.166 0.971,5.88 2.049,0.356c3.388,-17.369 10.546,-55.652 11.451,-60.494c0.306,-1.749 0.771,-1.754 0.035,-3.31c-5.174,-4.323 -9.5,-5.936 -9.633,-6.168c-0.457,-0.794 1.187,-1.91 10.161,5.272c2.013,-3.895 0.793,-4.232 10.531,-53.778c0.386,-1.966 -0.457,-2.484 -0.479,-2.524c1.646,-3.414 2.371,-8.385 2.747,-10.437c6.921,-37.821 7.018,-37.767 9.837,-52.512c-0.941,-0.009 -2.28,-0.021 -10.275,5.718c-20.418,14.656 -22.464,14.753 -36.697,31.264c0.965,4.717 13.726,12.706 18.592,14.333c0.39,0.131 26.383,9.079 4.442,2.597c-13.53,-3.997 -19.584,-10.575 -22.901,-14.016c-0.703,-0.729 -0.296,-1.408 -1.53,-1.316c-7.517,9.568 -24.819,40.426 -23.566,41.885c7.781,9.053 28.693,16.231 31.401,17.16c1.291,0.525 1.292,0.795 1.292,0.922c0.001,0.867 -0.381,0.269 -1.225,-0.1Zm-201.947,80.671c-2.559,2.411 -5.288,4.903 -5.398,5.001c-0.116,3.391 3.851,7.164 4.382,7.398l0.796,-3.577c0.881,-4.863 2.018,-7.592 0.22,-8.823Zm-0.72,-0.584c0.18,0.196 0.391,0.375 0.638,0.53c0.028,0.018 0.055,0.036 0.082,0.054c0.307,-0.289 0.611,-0.577 0.908,-0.859c-0.117,-0.842 0.595,-1.876 0.833,-0.796c0.43,-0.414 0.832,-0.804 1.187,-1.157c-0.085,0.328 -0.179,0.714 -0.285,1.191l0.642,0.899l0.57,-1.448c0.297,-1.243 0.417,-1.617 0.527,-2.186c0.09,-0.124 0.106,-0.185 0.031,-0.167c0.046,-0.256 0.093,-0.564 0.153,-1c-0.029,-0.817 -0.136,-0.744 -0.755,-1.197c-0.217,1.638 -0.393,2.189 -0.639,3.032c-0.825,0.624 -2.085,1.626 -3.892,3.105Zm0,0c-1.853,-2.024 -0.38,-5.97 -0.201,-6.45c0.037,0.005 2.662,0.737 2.893,0.802c0.811,0.226 1.016,-1.325 -0.466,-1.572c-0.538,-0.09 -1.123,0.071 -1.63,-0.129c-0.238,-0.094 -0.147,-0.571 -0.385,-0.665c2.331,-0.873 3.559,0.98 4.115,-1.487c0.416,-1.845 -0.628,-1.446 -1.841,-2.885c-0.378,-0.448 -15.07,-7.633 -17.322,-8.364c0.22,4.698 -2.109,11.072 -1.3,12.11c3.417,4.385 3.449,4.299 6.556,8.936c2.464,3.678 3.981,-0.781 6.77,-1.129c5.627,-0.701 -7.322,2.861 -3.505,5.785c0.308,0.236 0.323,-0.003 4.515,-3.471c0.652,-0.54 1.251,-1.033 1.8,-1.482Zm154.961,100.875c1.249,-4.111 -0.348,-4.333 0.754,-6.902c0.141,-0.328 1.499,-3.493 0.39,-4.444c-1.467,-1.258 5.42,-5.847 6.272,-2.148c1.025,4.447 -0.387,4.503 -0.044,5.541c3.777,11.41 -7.707,10.644 -5.104,13.966c1.321,-1.145 2.774,-2.404 15.743,-15.153c7.902,-7.768 23.398,-22.078 23.579,-22.337c1.483,-2.126 -34.216,5.898 -48.686,23.711c-1.681,2.07 1.409,-0.306 3.721,0.991c3.013,1.69 -0.908,0.701 -4.336,1.048c-2.422,0.245 -0.307,3.614 -0.226,4.329c1.016,9.061 -1.79,12.999 -3.305,17.985c-0.304,1.003 1.697,1.754 10.242,-8.164c2.167,-2.515 1.283,-2.826 1.118,-3.304c-1.951,-5.642 -9.995,-9.871 -6.912,-9.277c3.106,0.599 4.824,6.129 6.795,4.158Zm64.281,-76.469c-0.112,0.09 -2.456,1.966 -0.447,1.742c0.375,-0.042 0.228,-0.2 0.447,-1.742Zm-218.985,-6.482c1.257,0.158 1.24,0.041 1.226,-0.056c-0.032,-0.215 -1.73,-3.304 -1.226,0.056Zm208.461,8.101c-1.735,6.29 -1.086,6.565 -0.562,6.536c5.084,-0.277 5.189,-0.716 5.059,-1.11c-0.245,-0.745 -2.301,-4.222 -4.497,-5.426Zm-5.004,-51.091c-2.716,-1.108 -2.658,-1.156 -5.507,-1.676c-1.17,-0.213 -0.134,-8.198 1.005,-7.97c0.497,0.099 6.191,1.239 6.334,0.112c0.101,-0.793 0.655,-1.608 0.398,-2.364c-0.1,-0.294 -7.11,-0.309 -17.722,-5.164c-20.096,-9.195 -21.218,-11.529 -29.146,-18.245c-1.587,-1.344 -3.125,15.09 -6.114,18.351c2.668,10.638 4.625,19.85 9.95,33.89c1.121,2.956 1.23,4.118 4.189,2.903c0.771,-0.317 0.772,-0.821 5.618,0.6c24.195,7.099 24.407,6.301 26.467,7.045c1.682,-11.184 2.398,-16.595 4.53,-27.483Zm-81.031,90.884c0.047,-0.417 0.495,0.039 0.541,-0.369c0.005,-0.046 0.019,-0.168 -0.46,-0.352c-0.55,-0.212 -0.316,0.133 -0.081,0.721Zm-114.074,-44.672c-2.116,-0.415 -2.603,0.095 -2.143,2.256c0.062,0.292 -1.841,-0.639 -1.66,1.064c0.159,1.499 -1.469,0.429 -0.971,-0.963c0.577,-1.614 0.359,-1.64 -0.505,-3.154c-2.214,-3.88 -26.261,0.882 -28.666,1.5c-2.264,0.582 -2.635,0.882 -2.169,3.198c0.188,0.935 3.578,-0.33 9.653,0.61c12.608,1.951 24.06,17.285 26.462,-4.511Zm142.402,-63.727c1.131,-3.185 -0.872,-3.095 -2.197,-13.969c-1.583,-12.998 -0.635,-16.875 -0.989,-19.111c-0.047,-0.296 -0.757,-0.109 -0.804,-0.405c-0.396,21.871 -0.546,21.799 -2.662,43.551c-0.883,9.079 -1.841,9.232 -0.727,11.017c0.024,-0.064 5.204,-17.589 7.378,-21.083Zm-145.97,43.471c-2.072,13.761 -5.804,17.112 1.605,18.337c2.201,0.364 1.283,-3.949 1.208,-4.299c-2.106,-9.89 -1.659,-9.888 -1.92,-13.427c-0.074,-0.997 -0.857,-0.588 -0.892,-0.612Zm222.048,19.093c1.823,0.407 2.637,1.344 2.848,-0.544c0.026,-0.231 -0.281,-1.664 -2.848,0.544Zm-66.904,68.278c3.048,-0.711 0.101,-1.314 -0.002,-1.302c-0.125,0.014 -0.889,0.102 -1.48,0.523c-1.063,0.758 0.186,0.581 1.482,0.779Zm46.098,-120.582c-0.862,4.28 -3.394,6.754 0.929,6.451c1.26,-0.088 2.105,-6.291 0.936,-6.476c-0.147,-0.023 -0.138,0.002 -1.865,0.026Zm-1.223,-0.056c-5.602,-1.474 -5.783,-0.621 -5.822,-0.157c-0.303,3.597 -0.743,4.429 0.4,4.686c0.379,0.085 4.383,1.533 4.495,1.204c0.15,-0.44 -0.025,-0.401 0.927,-5.733Zm-213.439,13.418c5.965,2.889 13.464,6.919 12.359,4.957c-0.509,-0.905 -0.829,-0.361 -11.817,-5.366c-1.739,-0.904 -1.754,-0.712 -3.608,-1.161l3.066,1.57Zm67.186,4.919c0.828,1.812 3.368,2.512 1.367,2.413c-0.754,-0.037 -2.545,-0.774 -2.522,5.096c2.901,0.258 38.145,14.559 57.035,14.505c1.218,-0.003 0.845,-6.737 1.473,-17.007c-0.036,-0.876 0.053,-0.839 -0.42,-1.507c0.539,-2.387 0.904,-4.004 11.07,-28.521c-11.818,2.284 -47.851,-8.918 -55.065,-14.543c-0.534,-0.416 -0.912,-0.732 -1.164,-0.965c-6.938,19.759 -10.816,36.415 -11.774,40.53Zm67.922,92.444c1.836,1.881 5.136,3.576 2.438,2.839c-2.259,-0.618 -1.212,0.926 -1.648,3.207c-0.216,1.128 0.277,1.007 10.231,10.076c0.224,-8.064 0.301,-8.009 0.481,-16.066c0.013,-0.583 0.156,-7.017 -0.651,-7.261c-6.542,-1.974 -6.49,-1.975 -12.962,-4.063l-1.512,-0.453c-6.482,-1.822 -6.372,-1.923 -12.957,-3.346c0.038,3.188 0.072,3.195 -0.94,5.095c2.087,2.317 4.138,3.542 12.466,11.052c0.283,0.388 4.76,6.522 5.195,3.004c0.171,-1.382 0.771,-1.954 -0.649,-2.188c-2.109,-0.348 -2.411,0.236 -3.761,-1.44c1.401,-1.407 1.689,-1.59 3.762,-0.971l0.507,0.514Zm18.118,41.868c1.208,-0.773 1.218,-0.748 1.305,-0.835c0.496,-0.498 -1.846,-1.432 -1.305,0.835Zm78.448,-88.847c-1.481,1.733 -4.894,-0.008 -5.047,1.07c-0.298,2.106 1.639,3.807 -3.956,9.075c0.167,0.373 -0.722,0.72 -0.555,1.093c0.068,0.151 0.136,-0.052 1.934,-0.74c7.038,-5.267 7.221,-7.896 8.589,-9.916c0.406,-1.937 0.508,-1.934 0.441,-2.091c-0.311,-0.729 -4.658,-0.004 -1.406,1.509Zm-4.575,-1.543c-1.208,1.057 -0.79,1.244 -0.677,1.258c1.092,0.133 1.222,-0.309 0.677,-1.258Zm-13.347,-7.294c1.773,-10.264 2.73,-13.86 2.248,-14.054c-1.845,-0.744 -2.31,-0.592 -2.328,-2.583c-0.019,-2.144 -10.332,-0.897 -1.881,14.389c0.952,1.723 1.028,1.582 1.962,2.249Zm-206.678,-8.636c-2.375,-3.181 -2.358,-3.162 -2.565,-3.435c-1.14,-1.5 -1.46,2.91 -1.022,5.462c0.643,3.748 5.593,1.961 3.588,-2.026Zm219.267,14.767c1.897,-3.152 -2.738,-1.88 -2.913,0.731c-0.324,4.84 2.184,-0.266 2.913,-0.731Zm-107.757,42.2c-0.164,0.123 -0.436,-0.26 -0.599,-0.137c-1.026,0.773 10.088,11.014 12.098,12.19c0.402,-4.259 -1.582,-3.368 -4.732,-6.285c-0.308,-0.285 -6.225,-5.308 -6.767,-5.768Zm-1.242,-0.835c-3.008,-3.544 -10.269,-7.805 -5.652,-3.7c0.356,0.316 0.372,0.27 4.49,3.899c1.048,0.924 1.14,-0.186 1.162,-0.2Zm-106.712,-73.594c-0.144,-1.032 -0.091,-1.192 -1.094,-1.38c-1.064,-0.199 -0.838,3.986 1.094,1.38Zm17.983,-109.529c-1.123,6.282 -1.142,6.207 -2.011,12.486l0.799,-0.071c0.181,-5.028 1.565,-6.944 1.67,-12.162l-0.459,-0.253Zm93.614,210.962c-0.113,-0.51 -1.512,-2.309 0.454,-5.903c0.231,-0.423 1.784,-3.26 3.841,-4.637c3.484,-2.332 -0.618,1.713 -2.502,4.548c-2.939,4.422 0.847,9.89 1.566,10.334c0.347,-0.398 0.856,-0.26 0.557,-1.819c-0.994,-5.167 -2.014,-5.918 1.997,-9.37c3.77,-3.245 -4.019,5.81 -1.061,6.367c2.27,0.427 0.714,1.799 2.302,3.661c-0.431,0.239 -0.28,0.439 -0.825,0.458c-0.763,0.026 -0.591,0.327 -1.271,0.703c1.337,0.788 1.359,0.224 2.762,-0.353c2.055,-0.744 1.959,-0.788 4.091,-1.286l0.488,-0.033c4.878,-1.305 4.789,-1.299 9.47,-3.021c1.574,-0.579 2.344,-0.408 1.849,-2.054c-1.307,-0.965 -1.244,-0.933 -2.456,-1.944c-0.56,0.226 -1.928,0.776 -6.624,-3.627c0.044,0.794 0.512,9.232 -2.392,9.651l-0.368,-0.159c0.182,-1.954 3.576,-5.819 0.99,-11.001c0.135,-1.145 -0.133,-1.32 0.475,-1.45c0.226,-0.048 0.218,0.059 1.482,2.477c0.13,0.055 0.284,0.033 0.413,0.088c0.496,0.21 4.319,3.254 4.598,3.344c0.19,0.061 0.259,-0.455 0.449,-0.394c-6.672,-6.225 -6.576,-7.405 -7.903,-6.468c-0.729,0.515 -0.707,0.39 -1.51,0.833c-0.639,-0.388 -0.573,-0.366 -1.038,-0.906c1.26,-0.907 2.273,-1.017 1.066,-2.069c-0.788,-0.687 -1.788,-2.115 -1.866,0.054l-0.187,1.475l-0.524,-0.443l-0.658,-0.938c-0.391,-0.216 -0.671,0.106 -11.807,-10.713c-1.011,1.238 -1.508,17.362 -2.308,19.993c1.121,1.109 1.01,1.102 2.328,2.087c2.447,1.828 2.006,3.209 4.121,2.519Zm-91.45,-91.854c0.178,0.122 1.772,1.208 2.683,0.288c0.152,-0.153 0.352,-2.9 -2.683,-0.288Zm-19.747,1.376c0.992,-4.768 1.264,-4.715 1.063,-6.501l-0.472,0.257l-0.357,0.311c-0.47,2.881 -0.454,2.79 -0.911,5.67l-0.424,1.758c0.05,0.278 0.611,0.253 0.661,0.532l0.44,-2.027Zm155.602,95.586c0.203,-0.223 4.444,-4.867 1.906,-3.252c-4.674,2.975 -4.952,2.699 -5.017,3.169c-0.034,0.247 -0.145,2.837 3.111,0.083Zm-188.425,-128.949c2.766,3.278 7.036,9.451 11.339,13.892c4.694,4.845 0.898,-2.731 3.467,-8.971c-3.851,-2.701 -4.026,-2.402 -52.892,-25.686c0.182,0.131 -0.372,0.514 -0.19,0.645c4.107,2.952 19.039,9.986 20.73,10.782c0.284,0.134 7.1,3.452 13.781,6.751c-0.962,-1.181 -0.896,-1.438 1.897,0.666c0.206,0.155 0.436,0.362 0.687,0.613c9.59,4.756 17.017,8.571 1.181,1.307Zm36.166,46.396c-0.103,-0.081 -1.879,-1.473 -1.591,-0.407c0.3,1.109 0.672,1.102 1.591,0.407Zm150.234,80.275c2.81,-1.56 4.835,-1.601 3.765,-4.259c-0.905,-2.248 1.919,0.87 2.126,0.443c0.653,-1.35 -2.058,-3.425 -0.939,-4.98c2.428,-3.375 -4.705,-3.739 -3.506,-0.492c0.753,2.041 -0.87,1.793 -1.11,3.976c-0.203,1.841 0.731,1.904 -0.335,5.312Zm3.951,-44.205c-3.397,-0.29 -18.676,5.829 -19.972,12.415c-0.173,0.879 -0.679,0.671 -12.026,-2.34c0.004,0.029 -0.725,0.389 0.094,0.676c6.976,2.444 13.664,3.301 11.816,4.488c-0.425,0.273 -0.898,0.362 0.048,5.176c0.321,1.54 0.398,1.453 0.621,2.981c0.316,2.167 0.746,1.971 1.113,2.546c0.985,-8.534 12.964,-19.241 19.308,-19.982c1.506,-0.176 0.599,-0.918 0.155,-5.069l-1.158,-0.891Zm65.518,-12.706c0.628,-1.974 1.935,-3.737 0.096,-2.693c-2.003,1.138 -1.97,1.164 -2.155,1.235c-3.049,1.176 1.382,1.351 2.059,1.458Zm-20.422,-10.97c1.682,-0.72 1.019,-1.259 1.793,-5.443c1.708,-9.239 -2.502,2.304 -1.793,5.443Zm-60.614,61.752c3.262,-1.257 5.287,-12.879 39.566,-24.048c7.7,-2.509 10.274,-1.61 11.482,-3.208c-0.76,-0.174 -8.57,-1.967 -9.4,-2.592c-4.099,-3.091 9.48,2.837 9.059,0.656c-0.497,-2.572 0.971,-0.373 1.821,0.5l0.503,0.158c0.143,-0.182 0.634,0.145 0.495,-0.63c-0.023,-0.127 0,-0.055 -2.391,-3.573c-9.835,-14.47 -29.452,-57.795 -32.289,-65.82c-1.284,-2.894 -6.05,-13.636 -11.676,-37.814c-0.837,1.552 -1.254,2.327 -7.4,20.762c-1.361,4.596 -0.452,4.672 -0.665,5.016c-0.188,0.305 -0.621,0.124 -1.521,3.947c-0.985,-1.673 0.299,-4.58 0.059,-5.575c-1.633,-6.758 2.193,-13.313 3.547,-49.488c-0.088,0.192 -0.533,-0.072 -0.621,0.119c-0.717,1.561 -3.671,38.57 -3.939,41.929c-1.06,13.287 -0.361,14.096 0.425,15.005c-0.243,1.796 -0.238,1.785 -0.263,1.94c-2.334,14.691 -3.102,14.548 -3.789,29.054c-0.675,14.257 -0.554,14.245 -0.653,15.48c-0.99,12.31 1.102,24.432 1.157,25.521c0.909,18.049 -3.09,-9.67 -2.392,-24.498c0.912,-19.365 1.326,-19.318 1.381,-21c0.649,-19.778 5.86,-28.158 0.517,-27.562c-9.493,1.058 -9.393,-0.506 -18.975,-1.098c-2.798,-0.173 -1.388,1.364 -1.491,4.156c-0.544,14.703 -1.086,14.668 -0.952,15.938c0.039,0.374 10.053,0.099 10.926,0.075c0.177,-0.005 11.965,0.324 1.994,0.96c-11.835,0.756 -11.844,-0.038 -12.86,0.119c-0.208,0.032 -1.003,8.654 -1.073,9.408c-0.537,5.821 -4.534,33.293 -4.601,42.571c9.288,2.42 9.205,2.416 18.594,4.744c6.77,1.678 8.885,3.431 10.611,0.805c4.222,-6.424 17.198,-11.965 20.765,-11.013c0.268,0.114 0.242,0.079 0.992,0.203c0.679,-0.027 0.888,-0.29 0.934,0.226c0.271,3.029 0.154,2.969 0.517,5.968c0.295,2.436 -3.087,0.765 -8.21,4.707c-13.207,10.162 -11.877,18.304 -12.274,19.136c-0.269,0.673 -1.192,2.981 2.091,8.816Zm59.555,-66.132c0.286,-1.345 0.846,-2.302 0.527,-4.546c-4.356,-5.076 -4.739,-13.64 -5.646,-7.006c-0.228,1.668 -0.219,1.59 -0.96,3.026c2.974,4.367 2.903,4.322 6.08,8.525Zm-197.913,-35.045l0.05,0.978c0.795,2.165 1.072,-0.773 8.422,-4.792c4.129,-2.257 4.081,-2.45 8.422,-2.542c0.396,-0.008 2.885,-6.006 -5.557,-3.266c-12.343,4.007 -11.777,5.955 -11.337,9.622Zm193.901,11.116c-0.012,1.245 -0.063,1.25 -0.012,1.345c0.004,0.008 2.774,-1.266 0.012,-1.345Zm26.019,16.647c-4.994,-2.607 -7.839,9.578 -5.14,8.029c2.69,-1.544 2.84,-2.135 4.126,-2.101c0.415,0.011 4.923,-4.065 1.015,-5.927Zm-85.219,68.258c0.208,3.377 0.306,3.297 0.244,5.955c1.215,-0.049 1.151,-0.134 2.262,-0.604c-1.715,-4.516 -1.425,-4.765 -2.506,-5.351Zm-153.604,-110.548c-0.108,-0.13 -0.128,-0.319 -0.236,-0.449c-0.048,-0.058 -0.937,-1.134 -0.937,-0.008c0,0.101 0.087,0.034 1.173,0.457Z" style="fill:#fff;"/><path d="M356.27,349.783c-0.489,0.509 -1.051,1.679 -1.553,1.87c-0.52,0.198 -2.078,0.466 -4.028,1.479c-3.859,2.006 -10.914,7.174 -10.929,7.176c-1.607,0.208 -1.389,-4.627 -1.37,-5.045c0.332,-7.346 26.17,-8.784 17.88,-5.48Zm-0.472,-0.637c-1.271,0.136 -10.649,1.143 -15.532,3.768c-0.32,0.172 -1.184,6.109 0.408,5.154c0.554,-0.333 5.416,-3.977 10.521,-6.436c2.39,-1.151 2.474,-0.905 4.603,-2.486Z" style="fill:#eee;"/><path d="M63.908,330.108c-11.618,-14.164 -11.609,-14.161 -12.67,-15.347c-1.064,-1.19 -13.124,-14.676 -13.111,-15.041c0.023,-0.606 0.898,-0.909 5.81,4.865c7.426,8.728 7.392,8.723 8.039,9.478c2.922,3.41 49.125,57.328 35.312,43.642c-2.056,-2.036 -2.033,-2.041 -23.38,-27.597Z" style="fill:#c6c6c6;"/><path d="M105.788,326.911c0.003,-1.014 9.917,-61.821 11.143,-63.547c1.011,-1.424 3.047,-0.448 1.766,0.256c-0.573,0.315 -1.385,0.228 -5.664,26.088c-1.218,7.359 -4.15,26.963 -6.744,37.505l-0.501,-0.302Z" style="fill:#e0e0e0;"/><path d="M60.046,247.21c3.64,-0.017 8.735,5.914 20.735,11.982c9.245,4.674 9.451,4.099 15.922,7.167c7.405,3.51 13.8,3.968 14.738,4.243c6.047,1.771 -4.526,3.354 -33.153,-11.428c-3.357,-1.734 -17.025,-10.361 -18.243,-11.964Z" style="fill:#dfdfdf;"/><path d="M246.316,465.486c-16.177,4.649 -16.423,2.317 -28.086,1.453c-5.94,-0.44 -12.945,3.862 -13.943,4.475c-3.671,2.255 3.688,-7.469 16.486,-5.28c1.853,0.317 14.832,2.537 23.48,-0.88c1.08,-0.427 1.083,-0.318 2.063,0.232Z" style="fill:#ededed;"/><path d="M192.304,357.066c6.041,2.096 20.05,6.554 14.976,6.303c-1.309,-0.065 -34.188,-10.008 -29.143,-11.318c1.164,-0.302 1.012,0.588 14.168,5.015Z" style="fill:#fafafa;"/><path d="M157.739,386.647c-17.958,1.297 -21.135,-3.826 -27.582,3.99c-3.043,3.689 0.201,-7.029 12.588,-5.735c0.469,0.049 8.744,2.056 17.964,0.103c0.987,-0.209 7.455,-2.777 5.813,-0.989c-1.307,1.424 -8.058,2.513 -8.782,2.63Z" style="fill:#e7e7e7;"/><path d="M78.071,267.945c1.169,3.634 -9.085,-3.811 -9.426,-4.043c-9.294,-6.335 -10.113,-5.724 -9.928,-6.663c0.26,-1.319 1.186,-0.837 15.154,7.272c2.326,0.968 2.591,0.476 4.001,2.26l0.199,1.174Z" style="fill:#f8f8f8;"/><path d="M252.918,369.251c0.164,-5.191 0.246,-5.4 -0.187,-5.459c-0.151,-0.021 -4.485,0.77 -6.973,0.844c-10.55,0.316 1.814,-1.245 2.002,-1.266c1.661,-0.188 6.934,-1.836 6.685,0.43c-0.665,6.06 1.258,12.018 -10.744,9.078c-0.971,-0.238 -1.643,-10.489 -0.408,-7.165c1.063,2.859 -0.595,6.302 4.517,6.791c3.754,0.359 4.749,0.44 5.107,-3.253Z" style="fill:#ececec;"/><path d="M316.128,218.411c-1.631,-0.941 -2.913,-0.599 -1.973,-2.278l2.518,0.646c-1.059,-0.928 -1.006,-0.888 -2.284,-1.503c1.091,-0.821 1.256,-0.815 2.302,0.046c3.909,3.215 3.694,3.419 7.888,6.164c0.963,0.63 0.173,1.721 0.712,2.231c2.201,2.084 3.048,2.313 3.25,2.644c2.195,3.593 -7.849,-4.149 -12.414,-7.949Zm7.484,4.135c-0.109,-0.19 -1.46,-2.554 -2.149,-1.694c-0.724,0.904 0.23,0.725 2.149,1.694Z" style="fill:#f3f3f3;"/><path d="M229.153,463.932c1.278,-0.137 11.635,-1.246 16.065,-0.08c-0.257,0.026 -0.169,0.621 -0.426,0.647c-1.343,0.137 -2.695,-0.178 -4.045,-0.19c-5.297,-0.047 -5.202,0.13 -10.53,0.705c-2.498,0.269 -2.427,0.179 -4.997,0.502c-4.878,0.614 -10.705,-3.226 -9.331,-4.052c1.982,-1.193 1.556,3.99 11.485,2.485l0.099,-0.808c-0.785,-1.843 1.924,-1.88 1.687,0.086l-0.007,0.705Z" style="fill:#f7f7f7;"/><path d="M282.149,305.37c-0.368,-0.305 -7.721,-6.39 -2.868,-5.244c0.055,0.013 0,0 0.599,0.382c3.077,2.132 16.299,13.892 10.894,12.179c-0.862,-0.273 -0.503,-0.776 -8.625,-7.316Z" style="fill:#f8f8f8;"/><path d="M106.26,166.872c0.065,0.069 18.956,16.675 11.582,12.162c-0.632,-0.387 -9.067,-7.262 -9.842,-8.029c-3.483,-3.445 -2.074,-4.001 -1.74,-4.133Z" style="fill:#fbfbfb;"/><path d="M119.334,278.156c-0.001,-1.729 6.763,1.626 7.495,1.919c2.2,0.883 3.656,-0.044 2.861,1.138c-3.281,4.881 -1.463,8.741 -3.001,7.661c-0.189,-0.133 -0.047,-0.52 -0.236,-0.653c0.011,-3.855 0.564,-3.724 1.016,-5.938c0.146,-0.715 -0.218,-0.673 -8.134,-4.128Z" style="fill:#f1f1f1;"/><path d="M118.217,277.904c1.179,4.492 -3.511,6.119 -1.477,6.866c7.041,2.585 8.442,2.783 8.544,4.117c-0.867,-0.215 -10.782,-2.674 -10.39,-4.091c0.149,-0.537 0.406,-0.385 2.603,-6.459c0.023,-0.063 -0,0 0.72,-0.433Z" style="fill:#f4f4f4;"/><path d="M127.953,325.258c0.063,-0.172 0.598,-1.633 1.355,-1.847c8.762,-2.484 8.183,-4.373 8.871,-4.008c1.91,1.013 -8.939,5.241 -9.04,6.324c-0.341,3.664 -1.166,-0.368 -1.186,-0.468Z" style="fill:#f6f6f6;"/><path d="M260.746,373.744c-3.109,0.965 -1.23,-1.398 -0.983,-1.459c1.908,-0.468 9.233,-1.739 9.158,-1.015c-0.202,1.96 -4.41,0.232 -8.175,2.474Z" style="fill:#eee;"/><path d="M260.277,404.962c-2.388,-0.476 -0.443,-2.137 3.469,-2.11c3.856,0.027 5.85,-0.337 4.306,0.708c-1.933,1.307 -3.365,-0.442 -7.775,1.402Z" style="fill:#f6f6f6;"/><path d="M140.226,369.652c-1.321,0.047 -1.549,-0.253 -1.143,-1.464c0.052,-0.155 0.034,-0.327 0.077,-0.485c0.412,-1.52 1.042,0.973 2.491,0.344c3.245,-1.408 0.87,-3.661 2.104,-3.661c0.688,-0 0.975,1.651 0.782,2.389c-0.428,1.64 -3.916,2.752 -4.312,2.878Z" style="fill:#e3e3e3;"/><path d="M263.256,346.019c4.472,0.315 4.405,0.326 4.5,0.294c2.197,-0.745 0.956,0.744 0.875,0.793c-2.164,1.326 -2.659,-0.749 -4.829,0.71c-1.347,0.905 -2.889,-0.882 -0.546,-1.797Z" style="fill:#f4f4f4;"/><path d="M344.344,336.887c1.272,-0.508 1.261,-0.353 2.415,-0.6c1.485,-0.318 2.861,-2.897 3.471,-2.877c3.461,0.116 -8.811,8.088 -5.886,3.477Z" style="fill:#eaeaea;"/><path d="M206.749,243.25c-0.814,-1.215 -0.699,-1.223 -1.925,-2.098c-1.132,-0.807 1.173,-1.484 2.376,0.628c2.271,3.987 3.607,2.546 3.641,2.918c0.031,0.346 -0.976,3.095 -4.092,-1.448Z" style="fill:#bfbfbf;"/><path d="M245.218,463.852c-0.26,-0.532 -3.909,-5.08 -1.467,-5.067c1.554,0.008 2.132,4.166 1.961,5.059l-0.494,0.008Z" style="fill:#f1f1f1;"/><path d="M140.219,275.206c1.311,-1.197 1.272,-1.142 2.59,-2.365c2.83,-2.627 0.155,2.776 -4.573,4.726c-0.228,0.094 -0.973,-0.8 1.983,-2.361Z" style="fill:#e2e2e2;"/><path d="M133.767,300.85c2.867,-0.794 2.727,-1.141 2.982,-1.155c0.344,-0.018 0.877,1.237 -3.529,2.467c-0.793,0.221 -0.449,1.366 -0.965,1.384c-0.247,0.009 -2.577,-1.362 1.512,-2.696Z" style="fill:#d6d6d6;"/><path d="M141.654,365.246c-0.002,0.099 -0.641,4.905 -1.102,0.56c-0.417,-3.931 2.845,-6.621 2.316,-4.552c-0.531,2.074 -0.829,1.921 -1.214,3.991Z" style="fill:#ededed;"/><path d="M353.162,279.642c-0.089,0.078 -4.852,3.886 -1.427,-0.403c2.322,-2.908 4.824,0.486 3.489,0.362c-0.852,-0.08 -0.877,-0.638 -2.062,0.041Z" style="fill:#fafafa;"/><path d="M240.244,473.47c-0.173,-0.065 -1.555,-0.586 -1.538,-1.721c0.04,-2.701 4.065,0.825 1.538,1.721Z" style="fill:#f9f9f9;"/><path d="M349.858,307.971c1.34,-0.714 1.213,-0.743 2.481,-1.55c0.902,-0.574 1.173,0.935 -1.17,2.189c-0.103,0.055 -6.212,2.574 -1.311,-0.639Z" style="fill:#d4d4d4;"/><path d="M161.325,372.894c0.154,-0.032 1.666,-0.343 1.939,0.348c0.562,1.425 -1.698,0.874 -1.992,1.098c-4.888,3.723 -0.035,-1.371 0.053,-1.446Z" style="fill:#e4e4e4;"/><path d="M156.658,382.836c0.204,1 -0.009,1.214 -0.924,0.943c-0.235,-0.07 -3.065,0.866 -2.253,-0.335c0.933,-1.379 2.932,-0.692 3.177,-0.608Z" style="fill:#d4d4d4;"/><path d="M283.638,464.62c-2.648,1.274 -1.186,-1.841 0.091,-1.649c1.167,0.175 0.674,0.693 -0.091,1.649Z" style="fill:#f9f9f9;"/><path d="M261.691,458.533c1.036,0.282 0.962,0.758 0.093,1.292c-4.11,2.531 -0.178,-1.233 -0.093,-1.292Z" style="fill:#eaeaea;"/><path d="M350.117,387.08c1.01,-0.381 1.743,-0.815 1.379,0.204c-0.493,1.383 -2.529,1.12 -1.379,-0.204Z" style="fill:#f2f2f2;"/><path d="M355.134,387.624c1.092,-0.393 1.133,-0.633 1.37,-0.227c0.716,1.223 -2.602,1.761 -1.37,0.227Z" style="fill:#ededed;"/><path d="M251.86,445.907c0.778,-0.086 0.99,-0.394 1.199,0.381c0.279,1.036 -2.212,1.395 -1.199,-0.381Z" style="fill:#ddd;"/><path d="M167.272,366.843c0.105,0.005 1.188,0.058 1.236,0.443c0.144,1.16 -3.114,0.518 -1.236,-0.443Z" style="fill:#dbdbdb;"/><path d="M146.771,373.034c-0.636,-0.807 -0.644,-0.725 -0.636,-0.807c0.087,-0.886 2.064,0.043 0.636,0.807Z" style="fill:#eee;"/><path d="M116.344,376.576c1.115,1.806 -0.439,1.095 -0.521,1.05c-0.852,-0.465 -0.404,-0.791 0.521,-1.05Z" style="fill:#ededed;"/><path d="M109.269,375.233c0.059,2.718 -0.983,0.124 -0.944,0.053c0,-0 0.868,-0.049 0.944,-0.053Z" style="fill:#e4e4e4;"/><path d="M241.239,469.188c-1.673,-1.007 -0.051,-0.996 0.028,-0.993c0.798,0.034 0.537,0.442 -0.028,0.993Z" style="fill:#a9a9a9;"/></g></svg>